<?xml version="1.0" encoding="utf-8"?>
<!-- Generator: Adobe Illustrator 16.0.0, SVG Export Plug-In . SVG Version: 6.00 Build 0)  -->
<!DOCTYPE svg PUBLIC "-//W3C//DTD SVG 1.1//EN" "http://www.w3.org/Graphics/SVG/1.1/DTD/svg11.dtd">
<svg version="1.1" id="Layer_1" xmlns="http://www.w3.org/2000/svg" xmlns:xlink="http://www.w3.org/1999/xlink" x="0px" y="0px"
	 width="1213.8px" height="1043.56px" viewBox="0 0 1213.8 1043.56" enable-background="new 0 0 1213.8 1043.56"
	 xml:space="preserve">
<polygon fill="#8D8B8B" points="1097.727,598.956 1097.732,598.956 1097.727,598.159 "/>
<rect x="616.748" y="451.935" fill="#8D8B8B" width="3.947" height="34.604"/>
<rect x="680.106" y="451.935" fill="#8D8B8B" width="3.944" height="34.604"/>
<rect x="733.592" y="451.935" fill="#8D8B8B" width="3.945" height="34.604"/>
<rect x="670.237" y="451.935" fill="#8D8B8B" width="3.944" height="34.604"/>
<rect x="426.685" y="451.935" fill="#8D8B8B" width="3.943" height="34.604"/>
<rect x="363.328" y="451.935" fill="#8D8B8B" width="3.945" height="34.604"/>
<rect x="480.174" y="451.935" fill="#8D8B8B" width="3.945" height="34.604"/>
<rect x="416.82" y="451.935" fill="#8D8B8B" width="3.945" height="34.604"/>
<rect x="743.459" y="451.935" fill="#8D8B8B" width="3.945" height="34.604"/>
<rect x="490.039" y="451.935" fill="#8D8B8B" width="3.945" height="34.604"/>
<rect x="553.394" y="451.935" fill="#8D8B8B" width="3.945" height="34.604"/>
<rect x="543.529" y="451.935" fill="#8D8B8B" width="3.945" height="34.604"/>
<rect x="606.883" y="451.935" fill="#8D8B8B" width="3.945" height="34.604"/>
<rect x="1060.233" y="451.935" fill="#8D8B8B" width="3.944" height="34.604"/>
<rect x="996.877" y="451.935" fill="#8D8B8B" width="3.945" height="34.604"/>
<rect x="1050.369" y="451.935" fill="#8D8B8B" width="3.945" height="34.604"/>
<rect x="796.951" y="451.935" fill="#8D8B8B" width="3.938" height="34.604"/>
<g>
	<defs>
		<rect id="SVGID_1_" y="0.004" width="1213.796" height="1043.556"/>
	</defs>
	<clipPath id="SVGID_2_">
		<use xlink:href="#SVGID_1_"  overflow="visible"/>
	</clipPath>
	<path clip-path="url(#SVGID_2_)" fill="#8D8B8B" d="M1133.449,451.932v34.604h8.691h0.338c0.034-13.525,0.073-25.4,0.073-25.4
		l34.058-25.024l0.024-0.044H49.208l0.019,0.044l34.06,25.024c0,0,0.034,11.875,0.071,25.4h10.769v-34.604h-1.179v-5.335h1.179
		h5.916h3.945h5.92h3.943h5.92h1.192v5.335h-1.192v34.604h37.71v-34.604h-1.178v-5.335h1.178h5.916h3.946h5.92h3.945h5.918h1.191
		v5.335h-1.191v34.604h37.71v-34.604h-1.179v-5.335h1.179h5.916h3.945h5.92h3.945h5.921h1.189v5.335h-1.189v34.604h37.71v-34.604
		h-1.181v-5.335h1.181h5.913h3.946h5.919h3.946h5.921h1.188v5.335h-1.188v34.604h37.71v-34.604h-1.18v-5.335h1.18h5.915h3.945h5.918
		h3.945h5.921h1.192v5.335h-1.192v34.604h37.71v-34.604h-1.18v-5.335h1.18h5.915h3.946h5.92h3.943h5.921h1.191v5.335h-1.191v34.604
		h37.71v-34.604h-1.18v-5.335h1.18h5.915h3.945h5.921h3.945h5.918h1.192v5.335H499.9v34.604h37.71v-34.604h-1.18v-5.335h1.18h5.915
		h3.945h5.921h3.946h5.92h1.189v5.335h-1.189v34.604h37.71v-34.604h-1.177v-5.335h1.177h5.914h3.944h5.921h3.945h5.918h1.192v5.335
		h-1.192v34.604h37.709v-34.604h-1.172v-5.335h1.172h5.918h3.945h5.918h3.946h5.924h1.185v5.335h-1.185v34.604h37.709v-34.604
		h-1.177v-5.335h1.177h5.914h3.948h5.914h3.945h5.922h1.188v5.335h-1.188v34.604h37.711v-34.604h-1.178v-5.335h1.178h5.912h3.951
		h5.912h3.946h5.924h1.185v5.335h-1.185v34.604h37.709v-34.604h-1.177v-5.335h1.177h5.914h3.948h5.918h3.941h5.922h1.191v5.335
		h-1.191v34.604h37.711v-34.604h-1.178v-5.335h1.178h5.918h3.945h5.918h3.946h5.918h1.19v5.335h-1.19v34.604h37.708v-34.604h-1.176
		v-5.335h1.176h5.918h3.945h5.918h3.945h5.918h1.191v5.335h-1.191v34.604h37.711v-34.604h-1.178v-5.335h1.178h5.918h3.945h5.918
		h3.946h5.917h1.191v5.335h-1.191v34.604h37.709v-34.604h-1.171v-5.335h1.171h5.924h3.946h5.911h3.945h5.918h1.191v5.335H1133.449z"
		/>
	<rect x="1123.586" y="451.935" clip-path="url(#SVGID_2_)" fill="#8D8B8B" width="3.945" height="34.604"/>
	<rect x="1113.723" y="451.935" clip-path="url(#SVGID_2_)" fill="#8D8B8B" width="3.945" height="34.604"/>
	<rect x="987.014" y="451.935" clip-path="url(#SVGID_2_)" fill="#8D8B8B" width="3.945" height="34.604"/>
	<rect x="860.305" y="451.935" clip-path="url(#SVGID_2_)" fill="#8D8B8B" width="3.945" height="34.604"/>
	<rect x="806.815" y="451.935" clip-path="url(#SVGID_2_)" fill="#8D8B8B" width="3.944" height="34.604"/>
	<rect x="870.168" y="451.935" clip-path="url(#SVGID_2_)" fill="#8D8B8B" width="3.945" height="34.604"/>
	<rect x="933.524" y="451.935" clip-path="url(#SVGID_2_)" fill="#8D8B8B" width="3.944" height="34.604"/>
	<rect x="923.66" y="451.935" clip-path="url(#SVGID_2_)" fill="#8D8B8B" width="3.945" height="34.604"/>
	<rect x="163.399" y="451.935" clip-path="url(#SVGID_2_)" fill="#8D8B8B" width="3.945" height="34.604"/>
	<polygon clip-path="url(#SVGID_2_)" fill="#8D8B8B" points="1180.988,427.049 1199.807,403.81 1199.716,403.81 1195.927,408.489 
		29.819,408.489 44.847,427.049 	"/>
	<path clip-path="url(#SVGID_2_)" fill="#8D8B8B" d="M1149.406,982.582v-6.224l-2.227-6.602h-2.08v-11.813
		c0-0.557-2.119-1.08-5.795-1.545v-11.466c0-0.72-3.912-1.384-10.436-1.921V565.404c6.5-0.537,10.4-1.201,10.4-1.917v-11.464
		c3.672-0.472,5.797-0.994,5.797-1.551v-11.814h2.162l2.139-6.602v-12.759h-6.903l-0.024-2.546
		c-0.006-5.999,0.004-14.468,0.024-22.988l-0.323,0.254v-3.455H83.368c0.021,9.565,0.036,19.436,0.031,26.189l-0.026,2.546h-7.378
		v12.759l2.134,6.602h2.165v11.814c0,0.557,2.119,1.079,5.8,1.551v11.464h9.945v379.565H96l1.665,0.105l5.378-368.286l-2.51,368.472
		l3.115,0.195l4.956-368.247l-2.002,368.435l3.521,0.227l5.356-369.93l-2.521,370.108l4.635,0.29l3.111-348.894l-0.22,349.079
		l10.454,0.664H86.053v10.387l37.751,2.094H80.433c-0.053,0.066-0.18,0.125-0.18,0.191v10.49l43.551,5.444H76.788l-0.835,2.48v6.224
		H16.648v42.79H1209.13v-42.79H1149.406z M313.362,957.751h-43.045c-0.054,0.066-0.181,0.125-0.181,0.191v10.529l43.226,5.405
		h-46.689l-0.84,2.48v6.224h-65.874v-6.224l-2.142-6.602h-2.16v-11.813c0-0.557-2.124-1.08-5.799-1.545v-11.466
		c0-0.7-3.677-1.345-9.841-1.87V563.487h9.875v-11.464c3.68-0.472,5.801-0.994,5.801-1.551v-11.814h2.08l2.225-6.602v-12.72h65.874
		v12.72l2.14,6.602h2.162v11.814c0,0.557,2.124,1.079,5.802,1.551v11.464h9.717v379.575l1.624,0.105l5.381-368.296l-2.51,368.476
		l3.115,0.201l4.954-368.257l-1.999,368.442l3.52,0.225l5.354-369.936l-2.521,370.113l4.637,0.295l3.107-348.903l-0.22,349.085
		l10.362,0.658h-44.561v10.406L313.362,957.751z M503.213,957.751h-43.015c-0.057,0.066-0.181,0.125-0.181,0.191v10.534l43.196,5.4
		h-46.661l-0.835,2.48v6.224h-65.875v-6.224l-2.139-6.602h-2.166v-11.813c0-0.557-2.119-1.08-5.798-1.545v-11.466
		c0-0.71-3.768-1.36-10.066-1.89V563.487h10.105v-11.464c3.674-0.472,5.801-0.994,5.801-1.551v-11.814h2.075l2.224-6.602v-12.72
		h65.874v12.72l2.141,6.602h2.165v11.814c0,0.557,2.119,1.079,5.799,1.551v11.464h10.181v379.546
		c-0.145,0.01-0.272,0.024-0.41,0.034l2.036,0.13l5.378-368.325l-2.51,368.505l3.115,0.201l4.956-368.286l-2.002,368.472
		l3.521,0.225l5.356-369.965l-2.521,370.145l4.631,0.293l3.115-348.933l-0.22,349.118l9.863,0.625h-44.528v10.406L503.213,957.751z
		 M692.697,957.751H650.08c-0.059,0.066-0.176,0.125-0.176,0.191v10.586l42.793,5.349h-46.26l-0.84,2.48v6.224h-65.876v-6.224
		l-2.138-6.602h-2.16v-11.813c0-0.557-2.124-1.08-5.806-1.545v-11.466c0-0.69-3.574-1.331-9.6-1.851V563.487h9.641v-11.464
		c3.68-0.472,5.799-0.994,5.799-1.551v-11.814h2.075l2.231-6.602v-12.72h33.155h32.718v12.72l2.139,6.602h2.164v11.814
		c0,0.557,2.123,1.079,5.801,1.551v11.464h9.662v379.585c-0.029,0.005-0.053,0.005-0.078,0.01l1.705,0.105l5.385-368.315
		l-2.52,368.501l3.115,0.195l4.958-368.276l-1.999,368.466l3.521,0.225l5.355-369.959l-2.523,370.141l4.633,0.287l3.115-348.923
		l-0.225,349.108l9.986,0.635h-44.131v10.43L692.697,957.751z M883.605,957.751h-43.642c-0.054,0.066-0.181,0.125-0.181,0.191
		v10.453l43.822,5.481h-47.289l-0.836,2.48v6.224h-65.879v-6.224l-2.133-6.602h-2.168v-11.813c0-0.557-2.119-1.08-5.796-1.545
		v-11.466c0-0.71-3.789-1.364-10.121-1.895V563.487h10.16v-11.464c3.672-0.472,5.8-0.994,5.8-1.551v-11.814h2.077l2.22-6.602v-12.72
		h65.879v12.72l2.139,6.602h2.164v11.814c0,0.557,2.119,1.079,5.801,1.551v11.464h10.186v379.546c-0.054,0-0.104,0.005-0.156,0.01
		l1.781,0.115l5.381-368.286l-2.514,368.466l3.115,0.201l4.955-368.247l-1.996,368.43l3.52,0.228l5.352-369.926l-2.52,370.104
		l4.635,0.295l3.109-348.894l-0.218,349.079l10.491,0.664h-45.159v10.371L883.605,957.751z M1072.029,957.751h-42.147
		c-0.056,0.066-0.177,0.125-0.177,0.191v10.645l42.324,5.29h-45.826l-0.801,2.48v6.224H959.49v-6.224l-2.145-6.602h-2.162v-11.813
		c0-0.557-2.119-1.08-5.8-1.545v-11.466c0-0.69-3.575-1.331-9.597-1.851V563.487h9.636v-11.464c3.681-0.472,5.8-0.994,5.8-1.551
		v-11.814h2.075l2.231-6.602v-12.72h65.834v12.72l2.223,6.602h2.074v11.814c0,0.557,2.129,1.079,5.807,1.551v11.464
		c0,0.682,3.5,1.316,9.418,1.836v377.773l1.627,0.101l5.381-368.325l-2.509,368.511l3.114,0.195l4.955-368.286l-2.002,368.476
		l3.521,0.221l5.355-369.965l-2.52,370.145l4.635,0.293l3.109-348.933l-0.219,349.118l9.828,0.625H1035.5v10.457L1072.029,957.751z"
		/>
	<rect x="100.044" y="451.935" clip-path="url(#SVGID_2_)" fill="#8D8B8B" width="3.945" height="34.604"/>
	<rect x="353.465" y="451.935" clip-path="url(#SVGID_2_)" fill="#8D8B8B" width="3.945" height="34.604"/>
	<path clip-path="url(#SVGID_2_)" fill="#8D8B8B" d="M80.239,329.195l12.835,15.96l0.066,49.089h1039.554l0.071-49.089
		l22.408-27.876l-378.418-0.03v-9.876c-3.287,0-6.582,0.013-9.813,0.013v-9.256h-13.142l0.017-3.8h-43.991
		c-3.539-9.966-3.955-19.666,2.389-29.229c1.816-2.742,2.813-6.006,4.428-8.896c0.889-1.595,2.275-2.916,4.336-3.851
		c-0.258,1.311-0.518,2.625-0.561,2.85c2.905,0.585,7.172,0.28,8.086,1.886c1.437,2.51,1.322,6.499,0.562,9.53
		c-0.996,3.945-3.472,7.495-4.897,11.369c-0.562,1.526-0.4,3.596,0.186,5.136c0.264,0.699,2.699,1.341,3.529,0.884
		c1.267-0.7,2.517-2.248,2.849-3.659c1.713-7.305,3.265-14.656,4.55-22.051c0.303-1.756-0.24-3.969-1.128-5.564
		c-2.384-4.275-2.954-8.496-1.329-13.161c1.568-4.495,1.383-8.919-1.113-13.189c-3.242-5.54-3.213-10.771,1.461-15.75
		c1.879-1.999,3.1-4.294,2.793-7.661c-0.309-3.273,1.254-6.73,2.025-10.1c0.098-0.439,0.625-0.964,0.499-1.245
		c-2.172-4.814,0.498-8.75,2.671-13.054c-3.727,2.005-6.246,1.479-7.725-2.31c-13.008-0.7-21.422,15.809-22.779,25.96
		c-0.501,3.774-0.766,7.661-1.962,11.221c-0.606,1.803-2.788,3.584-4.679,4.365c-6.791,2.793-11.137,3.169-13.203,4.108
		c-0.273,0.12-0.473,0.355-0.561,0.645c-3.008,10.215-6.738,20.74-20.26,23.631v-27.176h-8.207c-0.718-2.944-1.568-6.44-2.418-9.938
		c-0.492-0.882-1.475-1.802-1.41-2.642c0.537-7.02,1.328-14.024,1.866-21.045c0.11-1.399-0.495-2.869-0.856-4.29
		c-0.531-2.07-1.143-4.118-1.815-6.525c-2.578-0.179-5.873-0.409-10.157-0.708c-0.443-5.01-0.898-10.697-1.475-16.366
		c-0.547-5.304-0.986-10.641-1.967-15.871c-0.455-2.444-1.641-5.068-3.311-6.855c-1.123-1.204-3.837-1.79-5.527-1.37
		c-2.017,0.496-4.277,1.936-3.104,5.066c0.351,0.93,0.472,2.485-0.056,3.11c-1.537,1.814-3.256,4.239-5.283,4.675
		c-2.422,0.526-5.938-4.396-5.307-6.865c0.59-2.3,1.524-4.59,2.726-6.641c2.854-4.87,0.901-9.079-4.776-9.045
		c-3.355,0.02-6.704,1.226-10.32,1.955V102.42c0.42-0.151,1.57-0.496,2.682-0.95c5.725-2.326,9.167-6.52,9.811-12.69
		c0.606-5.749-1.221-10.996-6.237-13.806c-4.355-2.439-4.536-5.693-4.23-9.109c2.919-1.379,6.691-1.926,8.037-4.026
		c4.696-7.314,13.013-19.604,13.091-28.989c-4.811,3.024-14.039,10.939-17.652,13.599c-1.664,1.225-4.574,1.96-2.121,5.195
		c0.258,0.342-2.357,2.861-3.645,4.37c-2.08-4.09-0.54-8.794-2.673-10.935c-0.085-0.085-2.59,0.256-2.825,0.771
		c-0.786,1.741-1.054,2.64-0.947,4.559c0.103,1.755,1.115,1.772,0.327,5.871c-3.906-1.206-4.641-0.71-4.541-4.61
		c0.039-1.515-2.195-3.51-3.855-4.56c-5.376-3.405-10.959-6.475-16.465-9.675c0.154,7.98,6.064,18.14,12.71,21.813
		c0.639,0.357,1.87,0.611,1.894,0.982c0.326,4.7,3.026,6.551,7.43,6.839c0.523,0.031,1.545,1.88,1.301,2.35
		c-1.069,2.035-2.209,4.227-3.889,5.716c-4.851,4.309-6.582,9.66-5.056,15.684c1.541,6.076,5.671,9.98,12.099,11.035
		c0.438,0.07,0.835,0.366,0.945,0.415c0.352,4.221,0.696,8.252,1.016,12.285c0.166,2.126-0.149,4.39,0.495,6.35
		c1.9,5.771-1.86,8.772-5.466,11.771c-0.717,0.596-2.42,0.362-3.545,0.051c-4.257-1.164-8.203,0.479-8.603,4.9
		c-0.716,7.849-0.835,15.806-0.457,23.684c0.472,9.896,1.751,19.756,2.49,29.647c0.076,1.01-0.925,2.563-1.865,3.115
		c-4.05,2.373-8.264,4.463-13.154,7.048c0.12-1.789,0.19-2.869,0.266-3.951c0.288-4.093,1.113-8.239,0.739-12.272
		c-0.485-5.22-5.939-7.285-10.224-4.517c-0.806,0.52-2.246,0.076-3.01,0.076c-1.336,10.989-2.695,22.205-4.111,33.879l1.286,0.84
		c-9.27,9.302-10.391,19.575-7.832,30.661c-8.589-2.97-8.985-3.476-9.219-11.676c-0.339-11.62-3.859-15.22-15.676-16.165
		c-1.967-0.159-3.943-0.489-5.859-0.969c-4.434-1.111-4.551-5.464-5.945-8.636c-2.566-5.835-4.729-11.865-6.77-17.91
		c-1.795-5.3-5.706-8.493-10.12-11.364c-2.481-1.61-4.741-1.421-7.209,0.185c-2.295,1.499-4.852,2.604-7.391,3.931
		c1.939,1.779,3.379,4.189,0.799,7.539c-0.679,0.884,0.357,3.049,0.515,4.634c0.356,3.396,1.382,6.93,0.805,10.171
		c-0.874,4.951,0.811,8.095,5.987,8.715c4.385,0.52,5.869,3.44,2.988,6.866c-4.304,5.124-4.805,10.498-2.759,16.593
		c0.765,2.281,1.19,4.82,1.055,7.201c-0.1,1.725-0.93,4.121-2.229,4.914c-3.09,1.902-3.315,4.436-3.061,7.461
		c0.549,6.526,1.05,13.054,1.564,19.58c0.015,0.149-0.075,0.344-0.004,0.449c1.24,1.951,2.356,4.021,3.865,5.735
		c0.329,0.371,3.019-0.468,3.039-0.835c0.115-2.143,0.405-4.675-0.559-6.414c-3.006-5.415-3.201-11.045-1.995-16.774
		c0.901-4.292,3.46-6.846,8.411-5.957c1.905,0.347,3.918,0.055,6.304,0.055c-0.2-1.259-0.359-2.29-0.596-3.795
		c5.5,1.142,6.965,5.727,7.307,9.37c0.809,8.716,0.52,17.55,0.408,26.335c-0.024,2.221-1.16,4.412-1.553,6.655
		c-0.214,1.201-0.629,2-1.152,2.601H472.02l0.014,3.8h-3.491l11.211,1.375h-20.859v7.615l11.794,1.45h-21.604v8.665H70.604
		l9.609,11.96H80.239z M776.756,329.295h20.83v5.92h-20.83V329.295z M776.756,338.589h60.215v5.921h-60.215V338.589z
		 M776.756,347.884h99.6v5.92h-99.6V347.884z M776.756,357.176h138.988v5.918H776.756V357.176z M776.756,366.47h178.373v5.921
		H776.756V366.47z M776.756,375.76H994.52v5.92H776.756V375.76z M776.756,385.054h257.148v5.921H776.756V385.054z M698.742,257.73
		c0.504-0.986,1.104-1.921,1.666-2.881c0.775,0.921,1.918,1.717,2.26,2.776c1.11,3.484,2.164,7.066-1.054,10.191
		c-0.499,0.483-0.812,1.364-0.86,2.085c-0.537,8.029-1.01,16.079-1.514,24.429h-5.053c0.83-0.025,1.768-0.106,2.921-0.291
		c-0.332-2.258-0.642-4.319-0.953-6.379c-0.073-0.45-2.422-6.69-2.476-7.071C692.141,270.155,694.119,266.895,698.742,257.73
		 M685.862,278.866c0.103,2.419,1.669,4.78,2.554,7.168c0.395,1.076,1,2.14,1.084,3.247c0.258,3.423,1.069,4.878,3.799,5.049h-9.99
		v-43.501c0.195-0.074,0.386-0.15,0.58-0.225c0.713,2.78,1.943,5.547,2.041,8.35C686.151,265.58,685.594,272.24,685.862,278.866
		 M685.213,240.249c-0.465,3.355-0.767,5.555-1.094,7.911h-11.445C677.082,245.374,680.614,243.15,685.213,240.249 M681.463,250.669
		v43.661h-11.187c-0.011-9.791-0.132-19.356,0.132-28.9c0.049-1.745,2.006-3.376,2.768-5.19c0.459-1.086,0.777-2.661,0.313-3.601
		c-0.918-1.875-2.427-3.46-4.288-5.97H681.463z M660.164,264.266c0.576-0.161,1.157-0.327,1.729-0.486
		c0.648,1.16,1.836,2.304,1.855,3.474c0.151,8.98,0.092,17.966,0.092,27.076h-3.051c-1.061-0.884-1.797-2.396-1.758-4.639
		C659.172,281.209,659.758,272.74,660.164,264.266 M645.78,264.859c0.735,6.396,2.304,24.471,2.728,29.471h-8.457
		C638.957,282.03,641.629,265.78,645.78,264.859 M632.85,182.44c1.566,3.84,2.861,6.999,4.386,10.734
		C631.936,191.444,630.549,188.05,632.85,182.44 M619.91,271.104c0.068-2.648,1.176-4.753,4.73-4.514
		c2.511,0.176,5.074-0.54,7.765-0.882c-1.997,5.008-3.888,7.652,4,9.642c-0.332,6.125-0.67,12.349-1.032,18.98h-13.197
		c-1.021-1.016-1.91-2.496-1.998-3.622C619.696,284.205,619.739,277.64,619.91,271.104 M602.62,97.554
		c-2.49-2.189-4.287-3.76-6.067-5.324c-0.029,0.015-0.059,0.029-0.083,0.044l0.01-0.115c-0.022-0.08-0.041-0.159-0.061-0.24h0.071
		c-0.005,0.081-0.005,0.16-0.01,0.24v0.005c0.024,0.022,0.1,0.051,0.073,0.066c-0.02,0.01,0.195-0.11,0.552-0.311
		c1.269-0.71,4.453-2.5,6.218-3.488c0.372,0.239,0.748,0.474,1.116,0.713C603.909,91.585,603.384,94.029,602.62,97.554
		 M603.748,85.995c-1.865-0.684-4.49-1.529-6.643-2.29V83.68h-0.061c-0.281-0.1-0.554-0.195-0.815-0.291
		c0.7-2.194,2.184-4.219,4.85-5.998c1.236,2.715,2.359,5.192,3.485,7.668C604.295,85.374,604.024,85.684,603.748,85.995
		 M610.321,76.48c2.409,2.176,4.164,3.755,6.731,6.069c-3.487,1.206-5.5,1.9-8.835,3.05c-0.059-0.093-0.124-0.184-0.2-0.268
		C608.963,82.039,609.329,79.844,610.321,76.48 M607.959,88.394c3.206,1.04,6.799,1.846,9.185,2.625
		c0.19,0.435-6.034,5.305-6.56,5.771c-0.635-1.926-1.665-5.17-2.695-8.31C607.913,88.456,607.935,88.426,607.959,88.394
		 M605.435,135c0.42,0.254,0.84,0.511,1.26,0.76v7.029c-1.78-0.22-3.455-0.425-6.646-0.818
		C602.305,139.051,603.87,137.025,605.435,135 M591.409,273.255c0.22-2.671,0.5-5.335,0.816-8.64
		c6.704,0.75,13.473,1.508,21.078,2.366c0,8.335,0.166,16.65-0.176,24.943c-0.029,0.716-0.798,1.665-1.708,2.406h-20.61
		c-0.474-0.43-0.845-0.894-0.83-1.226C590.249,286.48,590.869,279.864,591.409,273.255 M585.703,293.414
		c-0.024,0.315-0.304,0.615-0.695,0.916h-5.244c0.046-5.956,0.119-29.93,0.119-29.93c3.887-0.964,5.376-0.215,5.181,3.304
		c-0.129,2.37,0.659,4.775,0.72,7.169C585.933,281.06,586.19,287.269,585.703,293.414 M581.128,199.649
		c2.451-1.193,4.886-2.414,7.342-3.615c0.104-0.049,0.273,0.031,0.439,0.05c-4.28,4.51-8.43,8.885-12.6,13.28
		C575.025,202.616,575.025,202.621,581.128,199.649 M568.189,286.914c0.471-7.065,0.676-14.145,1.087-21.21
		c0.048-0.899,0.625-1.775,0.954-2.659c0.439,0.064,0.879,0.134,1.318,0.205c2.71,1.685,2.371,4.46,3.306,8.785
		c0.774,3.564,0.261,13.945,0.261,13.945s-0.027,5.264,0.149,8.35h-6.53C567.913,293.055,567.93,290.799,568.189,286.914
		 M554.583,251.131c2.437,14.289,6.34,28.313,4.817,43.199h-13.42v-44.004C549.285,250.635,551.685,250.86,554.583,251.131
		 M541.895,246.151c0.283-1.021,0.735-1.992,1.184-3.182c3.025,1.575,5.95,3.096,9.69,5.047h-10.901
		C541.868,247.334,541.739,246.705,541.895,246.151 M538.404,280.13c0.825-2.065,0.786-4.541,0.839-6.831
		c0.157-6.679-0.029-13.374,0.391-20.034c0.081-1.294,2.3-2.461,3.53-3.686c0.401,0.436,0.799,0.871,1.2,1.305v43.446h-8.656
		C534.515,289.256,536.543,284.759,538.404,280.13 M521.82,273.285c3.405,5.91,3.378,16.015-0.492,21.045h-0.949
		C520.899,286.724,521.365,279.964,521.82,273.285 M428.189,329.295h20.83v5.92h-20.83V329.295z M388.809,338.589h60.215v5.921
		h-60.215V338.589z M349.424,347.884h99.6v5.92h-99.6V347.884z M310.034,357.176h138.989v5.918H310.034V357.176z M270.65,366.47
		h178.374v5.921H270.65V366.47z M231.26,375.76h217.764v5.92H231.26V375.76z M191.873,385.054h257.15v5.921h-257.15V385.054z"/>
	<rect x="109.905" y="451.935" clip-path="url(#SVGID_2_)" fill="#8D8B8B" width="3.942" height="34.604"/>
	<rect x="290.111" y="451.935" clip-path="url(#SVGID_2_)" fill="#8D8B8B" width="3.942" height="34.604"/>
	<rect x="299.974" y="451.935" clip-path="url(#SVGID_2_)" fill="#8D8B8B" width="3.945" height="34.604"/>
	<rect x="173.26" y="451.935" clip-path="url(#SVGID_2_)" fill="#8D8B8B" width="3.945" height="34.604"/>
	<rect x="236.619" y="451.935" clip-path="url(#SVGID_2_)" fill="#8D8B8B" width="3.945" height="34.604"/>
	<rect x="226.753" y="451.935" clip-path="url(#SVGID_2_)" fill="#8D8B8B" width="3.945" height="34.604"/>
</g>
</svg>
