<?xml version="1.0" encoding="utf-8"?>
<!-- Generator: Adobe Illustrator 16.0.4, SVG Export Plug-In . SVG Version: 6.00 Build 0)  -->
<!DOCTYPE svg PUBLIC "-//W3C//DTD SVG 1.1//EN" "http://www.w3.org/Graphics/SVG/1.1/DTD/svg11.dtd">
<svg version="1.1" id="Layer_1" xmlns="http://www.w3.org/2000/svg" xmlns:xlink="http://www.w3.org/1999/xlink" x="0px" y="0px"
	 width="90px" height="90px" viewBox="0 0 90 90" enable-background="new 0 0 90 90" xml:space="preserve">
<path fill="#EBEBEB" d="M6.862,48.692c-2.284-3.112-1.367-7.387-1.328-7.567c0.146-0.655,0.691-1.154,1.357-1.242
	C6.96,39.874,7.03,39.87,7.1,39.87c0.6,0,1.145,0.33,1.423,0.862c0.711,1.362,1.904,2.778,2.472,2.956
	c0.091-0.043,0.31-0.169,0.674-0.515c0.444-0.42,0.428-1.828,0.413-3.191c-0.024-2.099-0.056-4.956,1.614-7.387
	c-0.593-0.628-1.05-1.326-1.362-2.074c-2.118-5.1,0.956-8.496,2.876-9.579c0.549-0.31,1.276-0.254,1.773,0.132
	c0.512,0.399,0.733,1.062,0.562,1.688c-0.336,1.231-0.369,2.407-0.282,2.994c0.281-0.392,0.526-1.147,0.883-2.426
	c0.662-2.378,1.566-5.626,4.895-7.871c-0.017-0.433-0.013-0.858,0.014-1.266c0.219-3.325,1.799-5.558,2.559-6.63
	c1.188-1.677,1.614-4.193,1.63-4.297c0.065-0.411,0.284-0.777,0.616-1.029c0.525-0.398,1.189-0.609,1.923-0.609
	c1.128,0,2.193,0.488,2.596,0.745c2.541,1.591,4.299,4.061,5.107,7.161c0.407-0.408,0.799-0.835,1.172-1.279l1.746-2.078
	c0.305-0.363,0.753-0.572,1.229-0.572c0.167,0,0.333,0.026,0.492,0.077c0.625,0.202,1.058,0.754,1.106,1.407l0.206,2.708
	c0.005,0.083,0.017,0.273,0.01,0.535c2.762-0.348,5.083-0.356,6.805-0.017c0.232,0.046,0.451,0.142,0.639,0.282
	c0.785-0.743,1.288-1.653,1.627-2.268c0.381-0.689,0.773-1.401,1.736-1.462c0.067-0.005,0.139-0.007,0.213-0.007
	c0.662,0,2.321,0.237,3.383,2.426c0.838,1.728,1.388,4.836,0.301,8.079c0.589-0.159,1.284-0.432,2.107-0.826l3.801-1.822
	c0.218-0.105,0.45-0.158,0.693-0.158c0.417,0,0.812,0.159,1.111,0.448c0.481,0.462,0.625,1.182,0.361,1.794
	c-0.071,0.164-1.712,3.866-5.632,6.06c0.445,0.1,0.897,0.187,1.356,0.261l0.14,0.022c0.11,0.019,0.22,0.048,0.323,0.088l0.131,0.052
	c0.488,0.189,2.942,1.27,3.414,3.945c0.142,0.806,0.076,1.619-0.196,2.421c1.285,0.804,2.43,1.768,3.406,2.866
	c1.496,1.683,4.744,4.573,9.688,5.03c2.392,0.221,4.35,1.409,5.509,3.346c2.045,3.411,0.959,7.769,0.733,8.572
	c0.046,0.131,0.101,0.266,0.131,0.348c0.567,1.492,2.076,5.444-1.941,8.58c-0.248,1.365-0.818,2.546-1.698,3.515
	c-0.813,0.89-1.836,1.532-3.042,1.909c-0.258,1.77-0.973,4.221-2.903,6.19c-2.035,2.075-4.87,3.128-8.429,3.128
	c-0.535,0-1.094-0.025-1.657-0.073c-0.979-0.082-1.898-0.252-2.747-0.503c1.179,0.96,2.479,1.901,3.883,2.814l2.518,1.636
	c0.529,0.344,0.807,0.971,0.709,1.595c-0.098,0.622-0.554,1.132-1.164,1.299l-2.896,0.787c-0.275,0.074-2.743,0.716-6.69,0.785
	c0.165,0.486,0.318,0.988,0.455,1.5l0.945,3.572c0.18,0.681-0.114,1.413-0.714,1.778c-0.252,0.155-0.541,0.237-0.837,0.237
	c-0.396,0-0.778-0.145-1.072-0.409l-2.75-2.464c-0.055-0.047-5.491-4.791-11.514-4.791c-0.622,0-1.238,0.05-1.832,0.152
	c-0.108,0.019-0.221,0.038-0.335,0.06c0.458,0.27,0.764,0.755,0.791,1.306c0.034,0.723-0.423,1.382-1.112,1.604l-3.903,1.258
	c-0.104,0.034-2.61,0.83-5.759,0.83c-5.239,0-9.299-2.088-11.748-6.036c-0.242-0.391-0.458-0.793-0.644-1.198
	c-0.45,0.222-1.003,0.22-1.451-0.015c-0.052-0.027-5.287-3.171-6.72-7.975c-0.669-2.246-0.57-4.611,0.292-7.034l-2.24,0.238
	c-0.056,0.007-0.114,0.009-0.17,0.009c-0.598,0-1.142-0.329-1.419-0.859c-0.308-0.585-0.228-1.287,0.204-1.789l1.791-2.087
	c0.054-0.069,1.318-1.711,1.056-4.919c-0.088-1.073-0.004-2.124,0.25-3.125C9.094,50.843,7.794,49.96,6.862,48.692z"/>
<path fill="#2E1705" d="M7.1,41.473c0,0,1.881,3.619,3.794,3.826c0.571,0.062,1.207-0.324,1.879-0.962
	c0.952-0.904,0.934-2.511,0.913-4.374c-0.027-2.43-0.061-5.363,2.267-7.543c-0.807-0.55-1.666-1.381-2.138-2.516
	c-2.132-5.133,2.181-7.563,2.181-7.563s-1.367,5.019,1.096,5.308c0.078,0.009,0.216-0.02,0.425-0.106
	c1.208-0.503,1.595-1.704,2.173-3.781c0.691-2.484,1.542-5.536,5.027-7.446c-0.082-0.694-0.105-1.366-0.062-2.017
	c0.176-2.688,1.352-4.514,2.268-5.809c1.443-2.04,1.906-4.975,1.906-4.975c0.875-0.664,2.401,0.023,2.693,0.212
	c3.481,2.18,4.618,5.725,4.837,8.903c1.008-0.757,2.271-1.855,3.525-3.344l1.748-2.078l0.203,2.707
	c0.011,0.139,0.074,1.218-0.363,2.328c0.485-0.052,5.239-0.993,8.469-0.355l-2.838,1.591c1.097-0.114,2.203-0.203,2.574-0.321
	c3.294-1.056,4.338-4.669,4.682-4.691c0.475-0.033,1.372,0.125,2.046,1.517c0.892,1.838,1.319,5.643-0.759,8.946
	c0.471,0.136,0.923,0.207,1.381,0.207c1.049,0,2.26-0.356,3.925-1.153l3.8-1.822c0,0-2.58,5.956-9.232,6.637
	c1.625,0.795,3.658,1.496,6.172,1.906l0.141,0.022l0.13,0.051c0.213,0.083,2.087,0.862,2.417,2.729
	c0.16,0.914-0.088,1.848-0.739,2.793c1.235,0.609,2.865,1.636,4.327,3.281c1.653,1.86,5.246,5.056,10.741,5.562
	c1.896,0.175,3.375,1.065,4.28,2.575c1.606,2.679,0.906,6.485,0.429,7.724c0.027,0.198,0.196,0.641,0.311,0.939
	c0.584,1.535,1.765,4.635-1.941,7.117c-0.074,0.867-0.363,2.205-1.386,3.325c-0.828,0.91-1.946,1.477-3.337,1.692
	c-0.084,1.613-0.554,4.314-2.566,6.367c-1.726,1.758-4.171,2.647-7.283,2.646c-0.491,0-0.998-0.021-1.524-0.067
	c-4.503-0.38-6.503-2.705-7.388-4.588c-0.493-1.055-0.691-2.071-0.766-2.82c-0.769-0.242-1.68-0.714-2.108-1.633
	c-0.185-0.393-0.312-0.938-0.159-1.618c-0.155-0.081-0.309-0.158-0.45-0.227c-0.309,0.339-0.718,0.756-1.214,1.198
	c0.062,0.689,0.319,2.162,1.34,4.125c1.348,2.586,4.328,6.563,10.874,10.817l2.516,1.638l-2.895,0.786
	c-0.146,0.039-2.769,0.737-6.971,0.737c-0.548,0-1.127-0.014-1.726-0.041c0.518,1.019,0.968,2.188,1.328,3.548l0.946,3.574
	l-2.756-2.468c-0.059-0.051-5.881-5.197-12.581-5.197c-0.711,0-1.419,0.059-2.1,0.175c-1.008,0.172-2.036,0.406-3.03,0.635
	c-1.499,0.344-2.936,0.674-4.338,0.81c0.718,0.258,1.54,0.497,2.482,0.705l4.005,0.874l-3.903,1.258
	c-0.095,0.032-2.365,0.753-5.267,0.753c-4.654,0-8.244-1.824-10.385-5.277c-1.522-2.457-1.428-4.714-1.327-7.104
	c0.079-1.859,0.167-3.918-0.531-6.436c-2.834,3.487-0.858,11.749-0.858,11.749c-0.158-0.083-4.719-2.968-5.924-7.013
	c-0.771-2.582-0.334-5.369,1.298-8.279c0.155-0.277,0.293-0.541,0.415-0.795c-0.639,0.426-1.478,0.732-2.597,0.849l-2.771,0.295
	l1.812-2.108c0.071-0.086,1.738-2.145,1.417-6.073c-0.146-1.783,0.301-3.208,0.823-4.224C5.327,49.438,7.1,41.473,7.1,41.473z"/>
<g>
	<path fill="#392753" d="M44.226,16.924l2.938,3.137c-1.661-0.864-3.684-1.583-5.83-1.583c-1.19,0-2.338,0.225-3.409,0.667
		l-1.129,0.467c-0.291-0.343-0.605-0.668-0.942-0.966c0.145-0.637,0.328-1.585,0.442-2.714l3.113-1.038
		c0.013-0.004,1.369-0.443,3.173-0.512c-0.02,0.017-0.035,0.029-0.043,0.036l-2.962,2.479l3.827-0.534l0,0
		c0,0,0.161-0.019,0.445-0.019c0.168,0,0.388,0.007,0.651,0.03v0.005c0.017,0,0.033,0,0.048,0c1.217,0.112,3.327,0.562,5.756,2.18
		c1.27,0.847,2.335,1.502,3.323,1.965c-1.36-0.186-2.817-0.628-4.352-1.321L44.226,16.924z"/>
	<path fill="#392753" d="M14.286,54.131c-0.216-2.646,1.39-4.191,1.405-4.208l2.33-2.123l-3.146,0.202
		c-0.013,0.002-0.111,0.006-0.268,0.006c-0.564,0-1.863-0.062-2.95-0.571c0.898-0.182,1.783-0.683,2.639-1.494
		c1.651-1.568,1.626-3.824,1.601-6.004c-0.03-2.764-0.058-5.15,2.681-6.709l2.126-1.211l-2.312-0.797
		c-0.438-0.155-1.508-0.677-2.148-1.497c0.254,0.088,0.537,0.137,0.848,0.137c0.408,0,0.837-0.093,1.277-0.275
		c2.259-0.941,2.867-3.123,3.454-5.23c0.584-2.099,1.187-4.259,3.371-5.738c0.109,0.377,0.234,0.76,0.376,1.149
		c-0.66,0.611-1.576,1.728-1.71,3.315c-0.069,0.829,0.087,1.653,0.461,2.471c-0.653,1.467-1.94,4.786-2.724,9.628
		c-0.972,6.004-1.313,15.604,2.581,27.231c3.601,10.749,9.871,11.11,15.933,11.458c2.433,0.141,4.951,0.287,7.285,1.131
		c2.416,0.873,4.856,1.979,6.646,4.617v0.006c0.002,0.001,0.004,0.003,0.006,0.003c0.198,0.293,0.389,0.605,0.571,0.938
		c-2.585-1.61-6.535-3.483-10.937-3.483c-0.837,0-1.667,0.067-2.47,0.207c-1.071,0.181-2.13,0.424-3.152,0.657
		c-1.832,0.422-3.562,0.817-5.113,0.817c-1.437,0-2.541-0.342-3.471-1.077L25.3,74.391c0,0,0.507,5.271,6.458,7.897
		c-0.076,0-0.15,0.002-0.227,0.002c-3.902,0-6.763-1.426-8.503-4.231c-1.164-1.879-1.09-3.626-0.997-5.843
		c0.101-2.382,0.226-5.344-1.296-9.149l-0.557-1.391l-1.166,0.941c-0.06,0.048-1.488,1.219-2.412,3.471
		c-0.589,1.439-1.057,3.544-0.601,6.238c-0.564-0.693-1.08-1.547-1.377-2.553c-0.584-1.983-0.21-4.188,1.113-6.547
		c2.808-5.014,1.153-7.074,0.858-7.637c-0.294-0.563-1.229-1.5-1.229-1.5s-0.203,2.784-1.278,3.726
		C14.296,56.778,14.401,55.549,14.286,54.131z"/>
</g>
<g>
	<path fill="#FFFFFF" d="M26.276,61.708c2.312,6.905,5.664,8.856,9.606,9.541c1.386,0.241,2.844,0.325,4.354,0.412
		c2.594,0.149,5.273,0.304,7.911,1.258c2.274,0.823,4.695,1.886,6.674,4.086c2.733,0.272,5.054,0.197,6.76,0.037
		c-0.012-0.008-0.022-0.017-0.032-0.023c-7.427-5.555-9.689-10.65-10.368-13.499c-0.046,0.026-0.094,0.055-0.142,0.079
		c-0.424,0.234-0.884,0.457-1.384,0.656c-2.606,1.039-6.196,1.387-10.289-1.219c-5.885-3.745-7.099-8.147-7.08-11.183
		c0.005-0.992,0.144-1.948,0.381-2.854c-2.435-3.366-0.502-7.125,0.984-8.762c0.017-0.019,0.033-0.037,0.049-0.055
		c0,0-0.307,3.886,0.663,5.056c0.974-1.469,2.173-2.627,3.331-3.343c0,0-2.701,6.595-2.722,9.975s1.998,6.457,5.837,8.901
		c7.166,4.558,12.309-2.312,12.521-2.604l0.552-0.765l0.906,0.259c0.852,0.243,2.547,1.198,2.877,1.387l1.276,0.729l-0.84,1.206
		c-0.103,0.148-0.158,0.257-0.185,0.325c0.206,0.132,0.682,0.275,1.049,0.312l1.327,0.112l-0.107,1.325
		c-0.036,0.535-0.187,5.229,5.729,5.729c2.998,0.253,5.237-0.343,6.648-1.771c1.496-1.512,1.781-3.669,1.819-4.817
		c-0.804-0.13-1.551-0.357-2.22-0.625c-2.039-0.81-3.364-1.992-3.45-2.03c0,0,2.559,0.313,5.506,0.396v-0.008h1.274h0.216
		c1.232,0,2.138-0.304,2.689-0.898c0.608-0.657,0.705-1.562,0.717-1.961c-0.562-0.195-1.092-0.341-1.596-0.443
		c-3.126-0.641-5.251,0.332-7.17,1.213c-1.237,0.57-2.406,1.106-3.672,1.106c-0.003,0-0.005,0-0.008,0h-0.105
		c-1.564,0-3.928-0.001-7.611-4.85c-1.693-2.229-3.584-3.384-4.328-3.782c-0.769,0.368-1.659,0.813-1.659,0.813
		c0.343-1.424,1.049-2.346,2.093-2.741c2.001-0.756,4.35,0.831,4.61,1.015c0,0-1.808,0.042-3.104,0.245
		c1.021,0.699,2.38,1.824,3.647,3.492c3.209,4.228,5.025,4.228,6.353,4.228h0.108c0.001,0,0.002,0,0.005,0
		c0.919,0,1.889-0.447,3.014-0.963c1.998-0.917,4.603-2.112,8.382-1.271c0.525,0.117,1.077,0.272,1.649,0.476l0.07-0.04
		c2.496-1.404,2.046-2.587,1.422-4.228c-0.281-0.734-0.565-1.489-0.472-2.248c0.023-0.197,0.073-0.395,0.155-0.594
		c0.316-0.748,0.723-3.242,0.005-4.954c-0.4-0.517-0.914-0.984-1.573-1.301c-2.255-1.081-5.563,0.328-5.563,0.328
		c0.353-0.6,0.774-1.06,1.232-1.408c-0.105-0.03-0.204-0.065-0.305-0.097c-4.309-1.34-7.227-3.999-8.737-5.699
		c-2.205-2.48-4.931-3.23-4.953-3.236l-2.46-0.635l1.91-1.676c1.018-0.893,1.323-1.55,1.275-1.841
		c-0.042-0.257-0.407-0.524-0.65-0.651c-4.256-0.721-7.311-2.212-9.41-3.679l0.475,1.607l0.648,2.214l-3.003-2.888
		c-0.013-0.012-0.388-0.367-1.021-0.857c-1.818-1.105-3.76-1.808-4.959-1.493c-1.377,0.361-4.118,4.076-4.118,4.076
		c0.419-2.854,1.342-4.707,2.746-5.536c-0.365-0.052-0.733-0.081-1.104-0.081c-0.53,0-1.893,0.167-2.829,0.636
		c0.553,1.403,0.382,4.25,0.382,4.25c-0.017-0.047-0.036-0.093-0.055-0.139c-1.573-4.036-4.371-5.995-5.353-6.581
		c-0.252-0.076-0.422-0.126-0.422-0.126c0.001,0,0.004-0.011,0.007-0.026c0.023-0.081,0.089-0.337,0.092-0.354
		c0.229-0.943,0.383-1.908,0.469-2.875c0.125-1.441,0.101-2.909-0.194-4.33c-0.155-0.756-0.39-1.498-0.725-2.193
		c-0.33-0.682-0.805-1.339-1.265-1.936c-0.194-0.251-0.457-0.501-0.723-0.67c-0.533-0.339-0.265,0.202-0.232,0.538
		c0.108,1.116-0.686,2.264-1.333,3.1c-3.53,4.564-1.222,14.118-1.036,14.86c0.008,0.03,0.012,0.048,0.012,0.048
		c-0.825-0.612-1.32-1.299-1.619-2.093c-0.858,2.362,0.67,6.278,0.67,6.278c-0.411-0.089-1.088-0.612-1.348-1.375
		c-0.641,1.678-1.503,4.384-2.07,7.937C22.849,41.379,22.542,50.56,26.276,61.708z M77.037,46.057
		c0.025-0.697,0.32-1.451,0.623-1.919c0.325-0.504,0.782-0.777,1.229-0.777c1.021,0,1.851,1.384,1.851,3.091
		c0,1.709-0.829,3.091-1.851,3.091c-0.085,0-0.171-0.01-0.254-0.028c-0.359-0.099,0.463-0.178,0.787-0.809
		c0.222-0.428,0.369-0.983,0.38-1.521c0.005-0.359-0.055-0.714-0.215-1.024c-0.238-0.464-0.531-0.329-0.721,0.089
		c-0.209,0.459-0.567,0.5-0.608-0.182c-0.012-0.157-0.278,0.151-0.296,0.185c-0.087,0.159-0.147,0.418-0.195,0.617
		c-0.09,0.376-0.289,0.611-0.501,0.298C77.097,46.911,77.022,46.427,77.037,46.057z M64.921,48.719c0-2.008,1.604-3.635,3.583-3.635
		c0.861,0,1.749,0.322,2.377,0.915c0.587,0.55,1.16,1.435,1.209,2.256c0.023,0.435-0.117,1.004-0.448,1.303
		c-0.407,0.369-0.791,0.093-0.967-0.351c-0.092-0.233-0.208-0.538-0.376-0.726c-0.036-0.038-0.555-0.4-0.574-0.217
		c-0.079,0.804-0.773,0.755-1.178,0.213c-0.364-0.49-0.932-0.648-1.396-0.104c-0.309,0.366-0.426,0.782-0.414,1.205
		c0.019,0.632,0.331,1.278,0.732,1.788c0.427,0.538,2.192,0.517,1.522,0.95c-0.158,0.021-0.325,0.035-0.488,0.035
		C66.524,52.353,64.921,50.725,64.921,48.719z M61.886,45.035c0.54-1.222,1.371-2.049,2.469-2.46
		c1.958-0.734,4.018,0.208,4.104,0.249c0,0-3.403,0.173-4.772,2.604c-1.227,2.178-0.039,5.572-0.039,5.572
		C61.002,49.199,61.401,46.131,61.886,45.035z M38.71,35.329c0.023-0.121,0.595-2.992,2.781-3.91c0.33-0.139,0.674-0.224,1.03-0.259
		c0.214-1.438,0.774-2.577,1.674-3.396c0.607-0.551,1.275-0.863,1.865-1.041c-1.017-1.498-4.228-0.067-4.228-0.067
		c0.14-0.258,1.43-2.521,3.437-2.411c1.468,0.078,2.689,1.334,3.731,3.844c1.077,2.6,1.836,3.982,2.462,4.484
		c0.359,0.288,0.648,0.283,1.725-0.034c0.54-0.159,1.475-0.52,1.671-1.158c0.166-0.543-0.188-1.384-1.002-2.366
		c0,0,3.312,0.941,2.814,2.922c-0.198,0.791-0.943,1.832-2.947,2.422c-0.514,0.15-1.088,0.32-1.688,0.32
		c-0.188,0-0.381-0.019-0.572-0.059c-0.104,0.187-0.226,0.372-0.371,0.545c1.023,0.782,4.014,0.417,4.014,0.417
		c-1.132,0.97-2.556,1.552-3.356,1.552c-1.979,0-3.524-1.079-5.341-2.348c-0.41-0.286-0.832-0.581-1.287-0.885
		c-1.188-0.792-2.152-1.024-2.889-0.738C40.75,33.744,38.71,35.329,38.71,35.329z M28.507,15.277
		c0.143-1.621,0.529-2.859,0.965-3.759c0.884-1.831,1.979-2.261,1.688-1.622c-1.401,3.097-1.975,7.042-0.21,6.485
		c0.407-0.129,0.909-1.205,1.123-1.844c0.352-1.058,0.539-1.185,0.631-0.979c0.087,0.194,0.089,0.679,0.064,0.964
		c-0.148,1.652-0.568,5.609-2.431,5.457C29.292,19.896,28.196,18.746,28.507,15.277z"/>
	<path fill="#FFFFFF" d="M54.242,15.452c-0.099,0.4-0.232,0.791-0.399,1.167c-0.047,0.104-0.602,1.189-0.653,1.158
		c-0.506-0.304-1.055-0.657-1.658-1.059c-0.449-0.299-0.956-0.603-1.485-0.895c0.06-0.01,0.114-0.02,0.159-0.029
		c0.93-0.185,1.85-0.502,2.627-1.056c0.323-0.229,0.616-0.498,0.875-0.796c0.101-0.117,0.413-0.699,0.641-0.653
		c0.023,0.005,0.044,0.015,0.064,0.034c0.165,0.144,0.04,0.804,0.021,1C54.399,14.704,54.335,15.081,54.242,15.452z"/>
</g>
<g>
	<ellipse fill="#FFFFFF" cx="46.989" cy="32.139" rx="0.876" ry="0.73"/>
	<path fill="#FFFFFF" d="M45.456,29.184c0.541-0.5,1.187-0.685,1.623-0.751c0.055,0.125,0.112,0.252,0.167,0.386
		c0.196,0.472,0.383,0.905,0.56,1.304c-0.118-0.014-0.239-0.024-0.362-0.024c-1.174,0-2.164,0.651-2.485,1.544
		c-0.188-0.085-0.372-0.159-0.556-0.223C44.552,30.446,44.904,29.695,45.456,29.184z"/>
</g>
<g>
	<path fill="#EBEBEB" d="M33.066,18.706c-0.001,0.008-0.003,0.018-0.003,0.027c-0.003-0.001-0.004-0.001-0.004-0.001
		C33.06,18.731,33.063,18.721,33.066,18.706z"/>
	<path fill="#EBEBEB" d="M33.063,18.732c0.014,0.003,0.177,0.053,0.418,0.125c0.981,0.586,3.779,2.545,5.353,6.581
		c-2.613-3.597-5.109-5.166-5.109-5.166c-0.465,1.957-2.029,2.78-2.029,2.78C32.831,20.941,32.898,19.672,33.063,18.732z"/>
	<path fill="#EBEBEB" d="M79.967,51.628c-2.056,0.276-2.846-0.593-2.846-0.593c1.93-0.157,3.032-1.131,3.624-1.943
		c-0.094,0.759,0.19,1.514,0.472,2.248c0.624,1.641,1.074,2.823-1.422,4.228l-0.07,0.04c-0.572-0.203-1.124-0.358-1.649-0.476
		C81.355,53.642,79.967,51.628,79.967,51.628z"/>
	<path fill="#EBEBEB" d="M77.521,56.626c0.504,0.103,1.033,0.248,1.596,0.443c-0.012,0.399-0.108,1.304-0.717,1.961
		c-0.552,0.595-1.457,0.898-2.689,0.898h-0.216C77.365,59.107,77.562,57.49,77.521,56.626z"/>
	<path fill="#EBEBEB" d="M53.507,71.326c-2.525-2.369-3.524-5.677-3.852-7.071c0.5-0.199,0.96-0.422,1.384-0.656
		c0.048-0.024,0.096-0.053,0.142-0.079c0.679,2.849,2.941,7.944,10.368,13.499c-9.665-2.297-13.9-6.439-13.9-6.439
		C51.548,71.562,53.507,71.326,53.507,71.326z"/>
	<path fill="#EBEBEB" d="M60.521,28.349c-5.811,0.316-6.271-0.963-6.271-0.963c1.673,0.133,2.358-0.315,2.358-0.315
		c-2.159-0.419-3.569-1.157-4.464-1.814l-0.475-1.607c2.1,1.467,5.154,2.958,9.41,3.679c0.243,0.126,0.608,0.394,0.65,0.651
		c0.048,0.292-0.258,0.948-1.275,1.841l-1.91,1.676l2.46,0.635c0.022,0.006,2.748,0.756,4.953,3.236
		c1.511,1.701,4.429,4.359,8.737,5.699c-4.517,0.688-8.247-2.459-9.787-4.458c-3.228-4.183-7.986-4.948-7.986-4.948
		C59.427,30.4,60.521,28.349,60.521,28.349z"/>
	<path fill="#EBEBEB" d="M52.655,27.334l1.158,1.375c0.701,0.988,1.179,2.04,1.035,2.586c-0.167,0.641-0.975,1.005-1.44,1.165
		c-0.567,0.194-1.086,0.355-1.313,0.32c1.229-0.455,2.276-1.167,0.925-3.621c-1.626-2.95-5.003-5.757-6.847-6.66
		C47.913,22.935,49.926,24.343,52.655,27.334z"/>
</g>
<g>
	<path fill="#CECECF" d="M34.974,51.87c0.021-3.38,2.722-9.975,2.722-9.975c-1.158,0.716-2.357,1.875-3.331,3.343
		c-0.97-1.17-0.663-5.056-0.663-5.056c-0.017,0.018-0.033,0.036-0.049,0.055c1.276-2.593,2.563-3.588,2.563-3.588
		c-0.524,2.808,0.098,4.446,0.098,4.446c2.773-2.378,6.357-2.958,6.357-2.958c-5.375,6.903-7.853,18.129,1.159,20.973
		c8.223,2.598,7.247-7.799,7.247-7.799c3.292,6.15,11.49,7.951,11.49,7.951c-1.61,0.221-2.319,1.396-2.319,1.396
		c2.876-0.812,5.386-0.442,5.386-0.442c-4.824,2.906-2.735,6.201,2.133,6.348c3.648,0.11,4.301-3.282,4.399-4.993
		c0.669,0.268,1.416,0.495,2.22,0.625c-0.038,1.148-0.323,3.306-1.819,4.817c-1.411,1.429-3.65,2.024-6.648,1.771
		c-5.916-0.5-5.766-5.193-5.729-5.729l0.107-1.325l-1.327-0.112c-0.367-0.036-0.843-0.18-1.049-0.312
		c0.026-0.068,0.082-0.177,0.185-0.325l0.84-1.206l-1.276-0.729c-0.33-0.188-2.025-1.144-2.877-1.387l-0.906-0.259l-0.552,0.765
		c-0.213,0.292-5.355,7.162-12.521,2.604C36.971,58.327,34.953,55.25,34.974,51.87z"/>
	<path fill="#CECECF" d="M45.266,24.24c-2.01-0.111-3.302,2.159-3.444,2.418c0,0,3.217-1.434,4.238,0.066
		c-0.59,0.179-1.261,0.492-1.869,1.044c-0.9,0.821-1.464,1.964-1.676,3.406c-0.357,0.035-0.701,0.121-1.031,0.259
		c-1.996,0.839-2.65,3.299-2.769,3.826c-0.501-1.673-0.501-5.517,4.264-7.288c0,0-1.239-0.476-3.299,0.449
		c0,0,1.74-4.131,4.17-4.719c3.668-0.889,4.969,2.964,5.394,4.963c-0.078-0.184-0.158-0.372-0.239-0.569
		C47.96,25.58,46.738,24.319,45.266,24.24z"/>
	<path fill="#CECECF" d="M52.325,39.355c0.088,0.023,0.134,0.037,0.134,0.037c-7.952,1.356-9.582-4.852-9.582-4.852
		c0.006,0.003,0.174,0.139,0.459,0.356c0.733,0.558,2.26,1.669,3.985,2.543C49.396,38.49,51.75,39.191,52.325,39.355z"/>
	<path fill="#CECECF" d="M51.535,46.912c0,0,2.307-5.062,5.192-5.33c0,0-0.386-0.482-0.616-0.733
		c-0.639-0.685-1.701-1.396-1.701-1.396s4.675,0.312,7.276,3.131C61.687,42.585,56.237,42.316,51.535,46.912z"/>
	<path fill="#CECECF" d="M23.764,35.641c0.567-3.553,1.429-6.259,2.07-7.937c0.26,0.763,0.938,1.286,1.348,1.375
		c0,0-1.528-3.917-0.67-6.278c0.299,0.794,0.794,1.481,1.619,2.093c0,0-0.003-0.018-0.012-0.048c0.373,0.812,0.877,1.648,1.56,2.442
		c0,0-1.438-0.235-2.144-1.146c0,0-0.308,3.212,2.541,6.883c0,0-2.715-0.763-3.822-2.266c0,0-2.878,8.179,3.607,15.919
		c0,0-2.947-0.583-4.396-3.114c0,0-0.417,19.002,20.133,26.801c0,0-11.324-0.854-15.259-5.616c0,0,0,4.132,5.543,6.499
		c-3.942-0.685-7.294-2.636-9.606-9.541C22.542,50.56,22.849,41.379,23.764,35.641z"/>
	<path fill="#CECECF" d="M32.072,14.539c-0.214,0.639-0.716,1.715-1.123,1.844c-1.764,0.557-1.19-3.388,0.21-6.485
		c0,0,1.637,0.707,1.543,3.663C32.611,13.354,32.424,13.48,32.072,14.539z"/>
	<path fill="#CECECF" d="M77.674,46.593c0.053-0.217,0.117-0.503,0.214-0.676c0.021-0.036,0.312-0.375,0.324-0.204
		c0.046,0.75,0.438,0.705,0.668,0.199c0.206-0.457,0.529-0.605,0.79-0.094c0.175,0.339,0.242,0.728,0.234,1.122
		c-0.011,0.591-0.188,1.192-0.414,1.668c-0.231,0.479-0.498,0.746-0.815,0.87c-0.251-0.012-0.505-0.119-0.73-0.349
		c-0.153-0.152-0.364-0.576-0.254-0.853c0.217,0.305,0.499,0.597,0.94,0.442c0.394-0.135,0.652-0.614,0.642-1.007
		c-0.009-0.355-0.199-0.948-0.644-0.915c-0.377,0.026-0.621,0.458-0.488,0.786c0.081,0.197,0.238,0.35,0.458,0.376
		c-0.398-0.049-0.714-0.062-1.022-0.354c-0.186-0.174-0.313-0.403-0.415-0.639C77.378,47.237,77.58,46.985,77.674,46.593z"/>
	<path fill="#CECECF" d="M69.163,50.353c0.272,0.115,0.727-0.312,0.679-0.613c-0.038-0.256-0.436-0.587-0.666-0.684
		c-1.051-0.444-1.948,0.923-1.406,1.785c1.129,1.811,2.853,0.242,2.872-0.056c-0.078,1.221-1.38,1.724-1.925,1.527
		c-0.516-0.152-0.957-0.445-1.343-0.931c-0.419-0.532-0.747-1.207-0.766-1.869c-0.013-0.441,0.11-0.876,0.434-1.257
		c0.482-0.571,1.074-0.406,1.459,0.107c0.421,0.565,1.145,0.615,1.23-0.224c0.019-0.19,0.561,0.188,0.597,0.228
		c0.177,0.196,0.298,0.515,0.394,0.758c0.159,0.401,0.484,0.672,0.844,0.483C70.914,50.159,69.824,50.702,69.163,50.353z"/>
</g>
</svg>
