<?xml version="1.0" encoding="utf-8"?>
<!-- Generator: Adobe Illustrator 22.1.0, SVG Export Plug-In . SVG Version: 6.00 Build 0)  -->
<svg version="1.1" id="Layer_1" xmlns="http://www.w3.org/2000/svg" xmlns:xlink="http://www.w3.org/1999/xlink" x="0px" y="0px"
	 viewBox="0 0 2048 2048" style="enable-background:new 0 0 2048 2048;" xml:space="preserve">
<style type="text/css">
	.st0{fill:#FFFFFF;}
	.st1{fill:#9FCBED;}
	.st2{fill:#FFD200;}
	.st3{fill:#EEB111;}
</style>
<path d="M1769.4,950.3c-9.5-11.1-22.9-23.1-41.3-32.9c-11.6-33.3-28.6-65.7-51.1-97.1c-41.2-57.5-98.8-108.9-171.3-152.8
	c-69.4-42.1-148.8-75.1-236.1-98.2c-89-23.6-181.4-35.5-274.7-35.5c-93.3,0-185.7,11.9-274.7,35.5c-87.2,23.1-166.7,56.1-236.1,98.2
	c-72.5,43.9-130.1,95.3-171.3,152.8c-45.9,64.1-69.2,132.7-69.2,203.7s23.3,139.5,69.2,203.7c41.2,57.5,98.8,108.9,171.3,152.8
	c69.4,42.1,148.8,75.1,236.1,98.2c89,23.6,181.4,35.5,274.7,35.5c93.3,0,185.7-11.9,274.7-35.5c37.1-9.8,72.7-21.4,106.8-34.8
	c-12,39.4,22.6,53.5,54.9,42.5c131.1-51.3,248.5-161.6,295.5-227.3c41.7-58.2,67.8-120.3,77.7-184.6
	C1805.6,1067.4,1814.1,1002.5,1769.4,950.3"/>
<path class="st0" d="M1792.1,930.8c-9.2-10.7-21.4-22.2-37.2-32.4c-12.4-33.1-29.8-65.3-52.1-96.5c-43.7-61-104.5-115.3-180.7-161.5
	c-72-43.6-154.2-77.8-244.4-101.7c-91.6-24.3-186.8-36.6-282.8-36.6c-96.1,0-191.2,12.3-282.8,36.6
	c-90.2,23.9-172.4,58.1-244.4,101.7c-76.2,46.2-137,100.5-180.7,161.5c-49.9,69.6-75.2,144.4-75.2,222.2
	c0,77.8,25.3,152.5,75.2,222.1c43.7,61,104.5,115.3,180.7,161.5c72,43.6,154.2,77.8,244.4,101.7c91.6,24.3,186.8,36.6,282.8,36.6
	c96,0,191.2-12.3,282.8-36.6c24.9-6.6,49.2-14,72.9-22.2c2.7,5.2,6.2,10,10.5,14.3c12.4,12.2,29.8,18.6,49,18.6
	c10,0,20.4-1.7,30.9-5.3l1.2-0.5c141.4-55.4,262.2-172.5,309-237.7c44.4-62,72.3-128.5,83-197.5
	C1835.5,1070.5,1845.6,993.2,1792.1,930.8 M1804.5,1074.6c-9.9,64.3-36.1,126.4-77.7,184.6c-47,65.7-164.4,175.9-295.5,227.2
	c-32.4,11-66.9-3.1-54.9-42.5c-34.1,13.3-69.7,25-106.8,34.8c-89,23.6-181.4,35.5-274.7,35.5c-93.3,0-185.7-11.9-274.7-35.5
	c-87.2-23.1-166.7-56.1-236.1-98.2c-72.5-43.9-130.1-95.3-171.3-152.8c-45.9-64.1-69.2-132.7-69.2-203.7c0-71,23.3-139.5,69.2-203.7
	c41.2-57.5,98.8-108.9,171.3-152.8c69.4-42.1,148.8-75.1,236.1-98.2c89-23.6,181.4-35.5,274.7-35.5c93.3,0,185.7,11.9,274.7,35.5
	c87.2,23.1,166.7,56.1,236.1,98.2c72.5,43.9,130.1,95.3,171.3,152.8c22.5,31.4,39.5,63.8,51.1,97.1c18.4,9.8,31.8,21.8,41.3,32.9
	C1814.1,1002.5,1805.6,1067.4,1804.5,1074.6"/>
<path class="st1" d="M1410.5,1490.4c0,0,0-0.1,0-0.3c-24.3,0.1-43.4-15.3-34.1-46.1c-34.1,13.3-69.7,25-106.8,34.8
	c-89,23.6-181.4,35.5-274.7,35.5c-93.3,0-185.7-11.9-274.7-35.5c-87.2-23.1-166.7-56.1-236.1-98.2
	c-72.5-43.9-130.1-95.3-171.3-152.8c-45.9-64.1-69.2-132.7-69.2-203.7c0-6.8,0.3-13.5,0.7-20.2c-17.9-35.1-23.7-57.4-23.7-57.4
	c-5.7,25.5-8.7,51.4-8.7,77.7c0,77.8,25.3,152.5,75.2,222.2c43.7,61,104.5,115.3,180.7,161.5c72,43.6,154.2,77.9,244.4,101.7
	c91.6,24.3,186.8,36.6,282.8,36.6c96.1,0,191.2-12.3,282.8-36.6c24.9-6.6,49.2-14,72.9-22.2c2.7,5.2,6.2,10,10.5,14.3
	c12.4,12.2,29.8,18.6,49,18.6c10,0,20.4-1.7,30.9-5.3l1.2-0.5c28.4-11.1,55.9-24.7,82.2-39.9
	C1466.8,1490.7,1410.5,1490.4,1410.5,1490.4"/>
<path d="M1805.8,919.1L1805.8,919.1c-9.3-10.8-21.4-22.3-36.6-32.8c-12.8-32.4-30.1-64.1-52-94.7c-45.1-63-107.6-118.9-185.9-166.3
	c-73.5-44.5-157.2-79.4-249-103.7c-93.1-24.7-189.7-37.2-287.3-37.2c-97.6,0-194.2,12.5-287.3,37.2c-91.8,24.3-175.6,59.2-249,103.7
	c-78.3,47.4-140.8,103.4-185.9,166.3c-52.1,72.7-78.5,150.9-78.5,232.4s26.4,159.7,78.5,232.4c45.1,63,107.6,118.9,185.9,166.3
	c73.5,44.5,157.2,79.4,249,103.7c93.1,24.7,189.7,37.2,287.3,37.2c97.6,0,194.2-12.5,287.3-37.2c20.7-5.5,41-11.5,60.9-18.1
	c1.7,2.1,3.4,4.1,5.4,6c15.5,15.4,37.4,23.8,61.6,23.8c12.2,0,24.5-2.1,37-6.4l1.6-0.6c145.1-56.8,269.1-177,317-244
	c46.1-64.3,75.1-133.4,86.2-205.2C1853.4,1072.4,1864.5,987.6,1805.8,919.1 M1834.2,1079.1c-10.7,69-38.6,135.5-83,197.5
	c-46.7,65.2-167.5,182.3-309,237.7l-1.2,0.5c-10.4,3.6-20.9,5.3-30.9,5.3c-19.1,0-36.6-6.4-49-18.6c-4.3-4.3-7.8-9.1-10.5-14.3
	c-23.7,8.2-47.9,15.6-72.9,22.2c-91.6,24.3-186.8,36.6-282.8,36.6c-96.1,0-191.2-12.3-282.8-36.6c-90.2-23.9-172.4-58.1-244.4-101.7
	c-76.2-46.2-137-100.5-180.7-161.5c-49.9-69.6-75.2-144.4-75.2-222.2s25.3-152.5,75.2-222.2c43.7-61,104.5-115.3,180.7-161.5
	c72-43.6,154.2-77.9,244.4-101.7c91.6-24.3,186.8-36.6,282.8-36.6c96.1,0,191.2,12.3,282.8,36.6c90.2,23.9,172.4,58.1,244.4,101.7
	c76.2,46.2,137,100.5,180.7,161.5c22.4,31.2,39.7,63.5,52.1,96.5c15.8,10.2,28,21.7,37.2,32.4
	C1845.6,993.2,1835.5,1070.5,1834.2,1079.1"/>
<path class="st0" d="M936.4,1012.1c9.1,3.7,21.7-6.1,28.1-21.8c6.4-15.8,4.2-31.5-4.9-35.2c-9.1-3.7-21.7,6.1-28.1,21.8
	C925.1,992.6,927.3,1008.4,936.4,1012.1"/>
<path class="st0" d="M1034.4,915.3c5.4-5.3,10.1-10.9,14.1-16.6c-23.1-13.2-46.7-25.7-71.5-36.6c-24.6,25.7-32.9,57.5-18.4,72.4
	C973.7,950,1007.6,941.4,1034.4,915.3"/>
<path class="st0" d="M1068,1169.7c-15.5,0-21.5-0.6-34.7-2.4c-18.3-2.3-23.7,8.7-26.6,17.4c-4.2,12.6-7.1,27.8-7.1,33.5
	c0,19.6,83.4,19.6,83.4,19.6s-67,24.6-135.1,0l50.6-80.4c-32.8-12-61.6-32.3-83.9-58.4l-72.1,41.2l59.8-57
	c-6.9-9.8-12.9-20.2-17.9-31.2l-87.1,31.9l80.2-48.8c-6.5-18.2-10.4-37.5-11.4-57.6l-6.5,3.7c3.8-5.7,6.1-12.6,6.4-18.7
	c1-41.4,14.6-79.8,37.1-111.5c4.4-6.4,2.7-15.1-6.7-17.2c-17.1-3.7-37-5.7-51.7-8.5c-8.2-1.6-17.1,0.9-28.3,10.8
	c-42.5,40.2-71.4,94.5-79.2,155.3c-1.6,12,8.4,17.7,18.2,17.7c3,0,7.8-0.7,13.6-1.7l0,0c0,0,0.2,0,0.6-0.1c4-0.8,8.5-1.7,13.2-2.8
	c16.3-3.4,42.9-8.9,56.1-11.5l-102.6,58.1c3,29.3,10.9,57.2,22.8,82.8l52.2-13.7l-39.1,38.5c13.4,22.2,30.1,42.2,49.3,59.5l121-70.8
	l-90.9,94.1c41.1,27.3,90.3,43.2,143.3,43.2c68.6,0,131.1-26.8,177.6-70.4c5.9-5.7,6.4-16.6-1.5-20.4c-8-3.9-52.6,8.2-92,5.3
	c99.4-13.7,142.7-57.6,155-73c10.6-24.8,17.4-51.7,19.8-79.7C1223,1118.9,1151.4,1169.7,1068,1169.7 M826,942.4
	c-1.2,4.9-3.3,8.8-10.4,11.2c-7.1,2.3-19.1,3.1-24.2,1.6c-4.3-1.2-3.3-5.6-3.1-8.7c6.1-47.7,30.9-67.6,40.7-72.4
	c6.8-3.4,23.3-7.3,19.7,0.5C835.2,900.8,829.3,928.5,826,942.4"/>
<path class="st1" d="M979.7,859.3c-1,0.9-1.8,1.9-2.8,2.9c24.8,10.9,48.4,23.4,71.5,36.6c15.5-22.4,19.1-46.3,7.1-58.7
	C1040.4,824.6,1006.5,833.2,979.7,859.3"/>
<path class="st1" d="M828.9,874.1c-9.8,4.8-34.7,24.7-40.7,72.4c-0.2,3.2-1.1,7.5,3.1,8.7c5.1,1.5,17.2,0.7,24.2-1.6
	c7.1-2.3,9.3-6.3,10.4-11.2c3.3-13.9,9.2-41.7,22.6-67.9C852.1,866.8,835.7,870.7,828.9,874.1"/>
<path class="st1" d="M1259,945.4c-2.4-2-4.7-4-7.1-6c1.4,9.3,2.2,18.7,2.2,28.4c0,102.8-83.3,186.1-186.1,186.1
	c-102.8,0-186.1-83.3-186.1-186.1c0-94.1,69.9-171.9,160.5-184.4c-26.2-12.3-55-22.9-87.5-31.3c-133.3,19.4-235.7,134.1-235.7,272.8
	c0,152.3,123.5,275.8,275.8,275.8c152.3,0,275.8-123.5,275.8-275.8C1270.7,997.2,1266.6,970.5,1259,945.4 M1234.1,1126.4
	c-12.4,15.4-55.6,59.3-155,73c39.3,2.8,84-9.2,91.9-5.3c7.9,3.8,7.4,14.7,1.5,20.4c-46.5,43.6-108.9,70.4-177.6,70.4
	c-52.9,0-102.1-15.9-143.3-43.2l90.9-94.1l-121,70.8c-19.2-17.2-35.9-37.3-49.3-59.5l39.1-38.5l-52.2,13.7
	c-11.9-25.6-19.8-53.5-22.8-82.8l102.6-58.1c-13.3,2.6-39.8,8.1-56.1,11.5c-4.8,1.1-9.2,2-13.2,2.8c-0.4,0.1-0.6,0.1-0.6,0.1l0,0
	c-5.8,1.1-10.6,1.7-13.6,1.7c-9.8,0-19.8-5.7-18.2-17.7c7.8-60.8,36.8-115.1,79.2-155.3c11.2-9.9,20-12.4,28.3-10.8
	c14.7,2.8,34.6,4.9,51.7,8.6c9.4,2,11.1,10.8,6.7,17.2c-22.5,31.7-36,70-37.1,111.5c-0.3,6.1-2.5,13.1-6.4,18.7l6.5-3.7
	c1,20.1,4.9,39.4,11.4,57.6l-80.2,48.8l87.1-31.9c5.1,10.9,11.1,21.4,17.9,31.2l-59.8,57l72.1-41.1c22.3,26,51.1,46.3,83.9,58.4
	l-50.6,80.4c68.1,24.6,135.1,0,135.1,0s-83.4,0-83.4-19.6c0-5.7,2.9-20.9,7.1-33.5c2.9-8.7,8.3-19.7,26.6-17.4
	c13.2,1.7,19.2,2.4,34.7,2.4c83.4,0,155-50.8,185.8-123.1C1251.5,1074.7,1244.6,1101.5,1234.1,1126.4"/>
<path class="st2" d="M1639.5,957.3c-79.8,0-160,37.7-289.8,37.7c-7.3,0-13.8,0.1-19.7,0.2c-42.6-0.9-55.6-4.8-55.6-4.8
	c0.9,9.9,2,116.3,86.5,121.5c6,0.3,11.6,0.7,16.9,1.3c-6.4,22.5-15.5,44.8-25.2,63.6c-21.6,41.7-51.8,79-89.9,110.8
	c-36.4,30.5-78.1,54.4-123.8,71.2c-46.7,17.1-95.1,25.7-144.1,25.7c-14.5,0-28.9-0.8-43.2-2.4c-0.6,0-0.8,0-0.9-0.1
	c-2.8-0.3-5.7-0.6-8.5-0.9c-1.3,0-2.7,0-4.5,0c-59.1,0-72.8,8.4-111.9,25.1c9.8-14.6,26.9-29.9,44.6-40.8c-1.7-0.5-3.5-1.1-5.2-1.7
	c-1.5-0.2-3.4-0.4-5.9-0.6c-49.6-4.7-61.7,1.3-95.8,12.2c10.7-13,29.2-26.1,47-33.5c-0.5-0.1-1.1-0.2-1.7-0.3
	c-38.2-6.9-48-3.1-75.2,3.2c9.4-9.7,25.4-18.9,40-23.4c-16.4-10.2-32.1-21.4-46.8-33.7c-38-31.9-68.3-69.1-89.9-110.8
	c-24.1-46.5-36.3-96.2-36.3-147.7c0-51.5,12.2-101.2,36.3-147.7c21.6-41.7,51.8-79,89.9-110.8c14.3-12,29.5-22.9,45.3-32.8
	c-167.3,25-232.2,164.1-232.2,164.1s67.2-202.5,310.7-202.5c287.1,0,359.2,177.2,542.4,226.9c-31-25.2-48.8-73.6-48.8-73.6
	s125.3,135.4,308.9,57.6c-5.9-12.9-12.3-22.9-12.3-22.9c-96.7-166.8-362-286.9-646-286.9c-327.4,0-630,159.5-678,366.3
	c-4.5,0.6-9.1,0.9-13.9,0.9c-12.9,0-25-2.3-35.5-6.2c1.9,8.8,5.7,21.1,13,33.7c6.8,11,17.3,23.4,33.3,33.3
	c53,32.9,120.7,18.6,120.7,18.6s-62.9,36.1-116.9,16.3c-1.5-0.5-2.9-1.1-4.3-1.7c32.8,216.3,344,385.9,681.7,385.9
	c158.7,0,311.5-37.5,432.4-99.6c31.8-46.4,53.2-178,5.4-219.9c9.1,4.6,15.8,9.5,20.7,14c63,75.7-2.1,267.4-2.1,267.4l32.9-17.9
	c6-3.4,11.9-6.9,17.8-10.4c74.4-45.1,133.6-97.9,175.9-156.9c36.2-50.6,58.7-103.8,67.2-158.8
	C1747.8,1048.8,1749.1,957.3,1639.5,957.3"/>
<path class="st3" d="M540.2,901.9c0,0,33.5-40.4,123.4-63.3c0,0,0,0,0,0c17.8-24.7,39-47.5,63.5-68c14.3-12,29.4-22.9,45.2-32.8h0
	C605.1,762.9,540.2,901.9,540.2,901.9"/>
<path class="st3" d="M1664.2,962.9c31.2,27.2,38.3,71.7,38.9,83.6c2.5,50.3-3.9,100.9-19,151.4c23.7-47,36.9-94.8,39.6-143
	C1724.5,1041.7,1719.7,982.2,1664.2,962.9"/>
<path class="st3" d="M1501.5,1037.2c-9.1-4.8-1.9-10.4-2.4-22.9c-9.1,18.4-61.2,38.9-29.6,42.2c31.5,3.3,80.1-18.7,80.1-18.7
	S1510.7,1042,1501.5,1037.2"/>
<path class="st3" d="M1432.8,1128c-12.9-6.5-30.6-12.2-54.9-14.8c-3.3,11.6-7.3,23.1-11.7,34.1c74.5,12.2,28.8,184.2,18.1,221.1
	c14.8-6.5,29.1-13.4,43.1-20.6C1459.1,1301.4,1480.5,1170,1432.8,1128"/>
<path class="st3" d="M317.5,1063.3c-1.5-0.5-2.9-1.1-4.3-1.7c4.4,29.1,13.9,57.4,27.8,84.6c-19.2-39.4,14.1-71.1,44.2-80.8
	C364.6,1070,340.3,1071.6,317.5,1063.3"/>
</svg>
