<?xml version="1.0" encoding="utf-8"?>
<!-- Generator: Adobe Illustrator 22.1.0, SVG Export Plug-In . SVG Version: 6.00 Build 0)  -->
<svg version="1.1" id="Layer_1" xmlns="http://www.w3.org/2000/svg" xmlns:xlink="http://www.w3.org/1999/xlink" x="0px" y="0px"
	 viewBox="0 0 2048 2048" style="enable-background:new 0 0 2048 2048;" xml:space="preserve">
<style type="text/css">
	.st0{fill:#B0B7BC;}
	.st1{fill:#003E7E;}
	.st2{fill:#FFFFFF;}
	.st3{fill:#0067B1;}
	.st4{fill:#F1E5C7;}
	.st5{fill:#FFD200;}
</style>
<path class="st0" d="M1652.6,690.4l0.3-18h-133.6c3.2-7.2,5.2-16,3.3-26.1c-0.4-2.3-1-4.5-2-7.1c-0.1-0.3-0.2-0.6-0.4-0.9l0,0
	c-0.5-1.2-1-2.5-1.8-3.9c-1.8-3.4-4-6.8-6.8-10c-0.6-0.6-1.1-1.3-1.7-1.9c-0.6-0.6-1.2-1.3-1.9-1.9c-0.8-0.7-1.5-1.5-2.4-2.2
	c-0.6-0.5-1.2-1-1.8-1.6c-1-0.8-2-1.6-3.1-2.5l-1.6-1.2c-0.7-0.5-1.3-0.9-2-1.4l-3.5-2.3c-41.8-26.4-75.8-67.5-97-97.3l-0.5-0.7
	c-150.3-197.4-267.3-212.7-272.2-213.2c-1-0.1-2-0.2-3-0.2c-19.1,0-46.8,19.7-46.8,50.6c0,11.3,4.5,21.5,8.9,31.3
	c1.3,2.8,2.5,5.6,3.6,8.3c-15.6-2.5-31.5-3.8-47.5-3.8c-3.3,0-6.5,0.1-9.3,0.2c-19-0.6-38.4,0.6-57.3,3.6c1.2-3,2.5-5.8,3.6-8.4
	c4.4-9.8,8.9-20,8.9-31.3c0-30.9-27.7-50.6-46.8-50.6c-0.2,0-0.4,0-0.5,0l-0.5,0c-1,0-2,0.1-3,0.2c-4.9,0.5-121.9,15.8-272.4,213.4
	l-0.3,0.5c-21.2,29.8-55.3,70.9-97.3,97.5c-13.5,8.6-22.2,18.1-26.4,29.1c-1.4,3.7-1.9,7.6-1.6,11.6c-0.7,8.4,1.2,15.8,3.9,22H395
	l0.3,18c0,1.2,2.8,117.2,49.4,273.6h-10.6v224.7h59v263.6h-59v224.7h492.1c51.4,42.4,84.8,64.4,85.2,64.6l12.5,8.2l12.5-8.2
	c0.5-0.3,50.1-33.1,119.9-94.2l46,29.5h270.3l166.3-106.8v-194.8h-235.4c25.6-35.9,49.5-72.8,71.2-109.9h164.2v-194.8l-57.8-37.1
	c4.3-12.8,8.4-25.6,12.1-38C1649.5,823.2,1652.6,691.7,1652.6,690.4 M1345,1452.4c5.1-6.3,10.2-12.6,15.1-18.8v18.8H1345z"/>
<path class="st1" d="M1645.1,690.3l0.2-10.4h-138.8c5.7-8.3,11.2-19.2,8.8-32.2c-0.4-2.1-1-4.1-1.7-6.1c0-0.1,0-0.1,0-0.2
	c0-0.1-0.1-0.2-0.2-0.4c-0.4-1-0.8-2.1-1.4-3.1c0-0.1-0.1-0.1-0.1-0.2c-1.5-2.9-3.4-5.8-5.8-8.5c-0.5-0.6-1-1.1-1.5-1.7
	c-0.5-0.6-1.1-1.1-1.6-1.6c-0.7-0.7-1.4-1.3-2.1-2c-0.5-0.5-1.1-0.9-1.6-1.4c-0.9-0.7-1.8-1.5-2.8-2.2c-0.5-0.4-1-0.7-1.5-1.1
	c-1.5-1.1-3.1-2.2-4.8-3.3c0,0,0,0-0.1,0c-0.1,0-0.2-0.1-0.2-0.1c-42.8-27.1-77.5-68.9-99.1-99.3c-0.1-0.2-0.2-0.3-0.4-0.5
	c-148.4-194.9-262.3-209.8-267.1-210.3c-0.7-0.1-1.4-0.1-2.1-0.1c-15.7,0-39.3,17.2-39.3,43.1c0,9.7,4,18.7,8.3,28.3
	c2.8,6.4,5.9,13.3,8.1,21.1c-18.8-3.9-38.6-6-58.9-6c-3.2,0-6.4,0.1-9.5,0.2c-3.2-0.1-6.3-0.2-9.5-0.2c-20.4,0-40.1,2.1-58.9,6.1
	c2.2-7.8,5.2-14.7,8.1-21.1c4.2-9.6,8.2-18.6,8.2-28.3c0-25.9-23.7-43.1-39.3-43.1c-0.2,0-0.4,0-0.6,0c-0.2,0-0.3,0-0.5,0
	c-0.7,0-1.4,0-2.1,0.1c-4.8,0.5-118.7,15.4-267.1,210.3c-0.1,0.2-0.2,0.3-0.4,0.5c-21.6,30.4-56.3,72.2-99.4,99.5
	c-12.1,7.7-19.8,16-23.4,25.5c-1.1,2.9-1.4,6-1.1,8.9c-1.2,11.9,3.9,21.8,9.2,29.5H402.7l0.2,10.4c0,1.2,2.9,120.8,52,281.3h-13.2
	v209.7h59v278.6h-59v209.7H929c51.6,42.8,86,65.5,86.6,65.9l8.4,5.5l8.4-5.5c0.7-0.5,51.8-34.2,123.3-97.3l48.9,31.4h265.9
	l161-103.4V1383H1389c27.9-38.2,55.5-79.9,81.6-124.9h161v-183.2l-59.3-38.1c4.9-14.3,9.6-28.7,13.9-43.4
	C1642.1,822,1645.1,691.6,1645.1,690.3 M1367.6,1459.9h-38.5c12.7-15.3,25.6-31.3,38.5-48.2V1459.9z"/>
<path class="st2" d="M941.3,690.1c0.1,0.1,0.3,0.1,0.4,0.2C941.6,690.2,941.5,690.1,941.3,690.1"/>
<polygon class="st2" points="1606.9,1233.4 1606.9,1088.4 1463.3,996.3 1211.9,996.3 1068.3,1088.4 1068.3,1552.7 1211.9,1644.9 
	1463.3,1644.9 1606.9,1552.7 1606.9,1407.7 1392.3,1407.7 1392.3,1484.6 1282.9,1484.6 1282.9,1160.2 1392.3,1160.2 1392.3,1233.4 
	"/>
<polygon class="st2" points="828.9,1484.6 740.1,1484.6 740.1,1156.6 799.7,1156.6 799.7,996.3 466.4,996.3 466.4,1156.6 
	525.5,1156.6 525.5,1484.6 466.4,1484.6 466.4,1644.9 1043.5,1644.9 1043.5,1372.9 828.9,1372.9 "/>
<path class="st2" d="M1273.1,971.5c2.4-3.5,4.6-6.8,6.7-10l0,0l0.4-0.7c5-7.6,9.2-14.4,12.7-20.2c0,0,0,0-0.1,0l12.5-20l-20.3,17.1
	c-23.5-9.5-23.3-18.1-23.3-18.1l0,0c-3.4-8.6-4.9-20.7-14.3-29.5c-5.3-5-16.5-9.7-27.2-13.3c1.2,9.3,2.5,21.8,2.5,34.7
	c0,21-3.7,41.1-9.9,60H1273.1z"/>
<path class="st2" d="M766.8,940.7c5,8.4,11.6,18.8,19.8,30.9h37.8v51c37.9,47.5,93.2,107.5,171.2,173c5.2-14,15.7-26.5,28.3-38
	c-19.6-3.5-46.6-22.6-61.1-33.8c-1.7-0.7-3.4-1.7-4.9-2.9c-45.1-37.3-120.8-114.1-120.8-209.3c0-12.9,1.2-25.4,2.5-34.7
	c-10.8,3.7-21.9,8.3-27.3,13.3c-9.4,8.8-10.9,20.9-14.3,29.5l0,0c0,0,0.2,8.6-23.3,18.1l-20.3-17.1L766.8,940.7
	C766.8,940.7,766.8,940.7,766.8,940.7"/>
<path class="st2" d="M1012.1,1209.2c5.8,4.7,11.7,9.5,17.8,14.3c4.7-3.7,9.2-7.4,13.7-11v-46.3
	C1027.7,1179.6,1014.5,1194,1012.1,1209.2"/>
<path class="st2" d="M964.1,684.5c0.1,0.1,0.1,0.1,0.2,0.2c0,0,0,0,0,0C964.2,684.7,964.1,684.6,964.1,684.5"/>
<path class="st2" d="M939.4,705c14.5,1.8,32.8-3.8,39.4-6c-2.6-3.1-7.9-9-14.5-14.2c-2.2,7.6-8.9,13.3-17.2,13.6
	c-8.6,0.3-16-5.2-18.5-13c1.6-0.8,3.8-1.8,6.5-2.8l0,0c2.1-0.7,4.4-1.5,7.2-2.1c-2.5-0.6-5.1-0.8-7.6-0.9c0-0.1,0-0.2,0-0.3
	c0,0.1,0,0.2,0,0.3c-2.6,0-5.1,0.2-7.1,0.5c0-1.9,0.3-3.6,0.7-5.4c-9.5,1.1-17.7,4.5-22.2,10.1C908.9,690.8,919.8,702.6,939.4,705"
	/>
<path class="st2" d="M1120.6,705c19.6-2.4,30.5-14.2,33.2-20.2c-4.6-5.5-12.7-9-22.2-10.1c0.5,1.8,0.8,3.7,0.8,5.6
	c-0.4,10.3-9.1,18.4-19.5,17.9c-5.4-0.2-10.1-2.7-13.4-6.5c1.1-1.3,2.7-3,5.1-5h0c0,0,0,0,0,0c1.9-1.7,4.3-3.5,7.4-5.5
	c-3.2,0.3-6.5,1.3-9.2,2.4c-2.6,1-4.8,2.1-6.4,3c-0.3-0.7-0.5-1.3-0.7-2c-6.6,5.2-11.9,11.2-14.5,14.2
	C1087.9,701.2,1106.2,706.8,1120.6,705"/>
<path class="st3" d="M957.9,680.3c0,0.4-0.1,0.7-0.2,1.1c-0.1,0.4-0.1,0.7-0.2,1.1c-0.1,0.3-0.2,0.7-0.3,1c-0.1,0.3-0.2,0.7-0.4,1
	c-0.1,0.3-0.3,0.6-0.5,0.9c-0.2,0.3-0.3,0.7-0.6,1c-0.2,0.3-0.4,0.5-0.7,0.8c-0.2,0.3-0.4,0.6-0.7,0.8c-0.3,0.3-0.6,0.5-0.9,0.7
	c-0.2,0.2-0.5,0.4-0.8,0.6c-0.3,0.2-0.7,0.4-1.1,0.6c-0.3,0.1-0.5,0.3-0.8,0.4c-0.4,0.2-0.9,0.3-1.4,0.5c-0.2,0.1-0.4,0.2-0.6,0.2
	c-0.7,0.2-1.4,0.3-2.2,0.3c-0.7,0-1.4,0-2-0.1c-4.6-0.6-8.5-4-9.6-8.5c-2.7,1-4.9,1.9-6.5,2.7c2.5,7.8,9.9,13.3,18.5,13
	c8.3-0.3,15-6,17.2-13.6c-0.1-0.1-0.3-0.2-0.4-0.3C962,682.9,960,681.6,957.9,680.3"/>
<path class="st3" d="M936.1,674.4c-2.6-0.1-5.2,0-7.6,0.3c-0.5,1.7-0.8,3.6-0.8,5.5c2-0.3,4.5-0.5,7.1-0.5
	C934.8,677.7,935.2,675.9,936.1,674.4"/>
<path class="st3" d="M1131.6,674.7c-1.3-0.1-2.4-0.1-3.8-0.1c-1.2,0-2.5,0.1-3.7,0.2c0.7,1.6,1.2,3.3,1.1,5.2
	c-0.3,6.4-5.7,11.4-12.1,11.1c-3.5-0.1-6.6-1.9-8.6-4.4c-2.4,2-4,3.7-5.1,5c3.3,3.8,8,6.3,13.4,6.5c10.3,0.4,19-7.6,19.5-17.9
	C1132.5,678.5,1132.1,676.5,1131.6,674.7"/>
<path class="st3" d="M1102.2,680.6c-2.3,1.2-4.5,2.5-6.5,4c0.2,0.7,0.5,1.5,0.8,2.2c1.6-0.9,3.8-2,6.4-3
	C1102.4,682.7,1102.3,681.7,1102.2,680.6"/>
<path class="st4" d="M1227.8,774.4c-8.4,0-5.9-14.9-13-14.9c0,0-0.3,12.7-3.9,34.4c-0.2,22.1,22.4,9.4,26-3.9
	c3.6-13.3,12.3-39.6,12.3-39.6S1236.3,774.4,1227.8,774.4"/>
<path class="st4" d="M844.9,759.5c-7.2,0-4.6,14.9-13,14.9c-8.5,0-21.4-24-21.4-24s8.8,26.3,12.3,39.6c3.6,13.3,26.2,26,26,3.9
	C845.2,772.1,844.9,759.5,844.9,759.5"/>
<path class="st4" d="M1029.9,687.9c-7.7,0-15.4,10-15.4,14.4c0,29.9-12.8,66.9-12.8,66.9s-9.3-3.3-17.7,0c-8.4,3.2-11,23.4-3.9,26.6
	c7.1,3.2,10.6-2.1,18.8-2.1c8.2,0,14.6,16.6,21.5,16.6h1.8h15.4h1.8c6.8,0,13.3-16.6,21.5-16.6c8.2,0,11.7,5.4,18.8,2.1
	c7.1-3.2,4.6-23.4-3.9-26.6c-8.4-3.3-17.7,0-17.7,0s-12.8-37-12.8-66.9C1045.2,697.9,1037.5,687.9,1029.9,687.9"/>
<path class="st4" d="M1010.6,663c5.8,0,9.8-14.6,9.8-14.6s5-10.8,9.5-10.8c4.5,0,9.5,10.8,9.5,10.8s3.9,14.6,9.8,14.6
	c3.8,0,24.1-18.8,48.6-32c13.1-7,38.7-12.4,38.7-12.4s-8.9-6.9-26.3-6.9c-45.3,0-78,14.9-80.2,16.2c-2.2-1.3-34.9-16.2-80.2-16.2
	c-17.4,0-26.3,6.9-26.3,6.9s25.5,5.4,38.6,12.4C986.6,644.1,1006.8,663,1010.6,663"/>
<path class="st4" d="M894.2,663.4c8.8,0,22.2-9.3,56.2-3.7c-9.9-3.7-22.5-11.3-47-11.3C885.4,648.4,869.5,663.4,894.2,663.4"/>
<path class="st4" d="M1164,663.4c24.7,0,8.8-15-9.2-15c-24.5,0-37.1,7.6-47,11.3C1141.9,654,1155.2,663.4,1164,663.4"/>
<path class="st4" d="M1138.6,980.8c-14.3,2.8-45.6,50-59.7,71.5l77.2-49.6c0-0.1,0-0.3,0-0.4
	C1156.2,989.4,1156.2,977.4,1138.6,980.8"/>
<path class="st4" d="M1006.1,1098.3c-8.4-30.4-46.5-102.2-65.7-102.2c-19.2,0-21.4,9.4-21.4,26c0,12,8.5,43.3,20.9,56.1
	c10.2,10.1,20.5,19.3,30.5,27.6c0,0,42.1,33.6,59.5,33.6c3.4,0,8.2-1.7,13.6-4.2V1073c-1.6,0.1-3.2,0.1-4.9,0.1
	C1020.4,1073.1,1011.6,1082.8,1006.1,1098.3"/>
<path class="st4" d="M1196,809.5c-10,4.9-39.3,38-55.9,79.9c-3.6-24.1,8.1-37.4,13.7-79.9c28.6,0,44.7-36.8,52.1-64.9
	c0,0-7.6-17.3-15.4-25.6c-7.8-8.3-13.7-14.3-31.2-4.4l0,0c-8.6,6.7-21.9,14.3-37.3,14.3c-20.4,0-34.2-4.4-48.8-12.3
	c-8-4.3-9.6,2.5-9.4,9.6c7.4,46.7,62.6,65.9,62.6,99.5v7.1c0,0-16.4-31.3-35.6-31.3c-16.5,0-30.7,11.4-45.5,23.1
	c-6,4.8-8.8,8.2-14.6,8.8c0,0,0,0.1-0.1,0.1c-0.3,0-0.5,0-0.7-0.1c-0.3,0-0.5,0.1-0.7,0.1c0,0,0-0.1-0.1-0.1
	c-5.8-0.5-8.6-4-14.5-8.8c-14.7-11.7-25.1-23.1-41.6-23.1c-23,0-39.5,31.3-39.5,31.3v-7.1c0-33.9,55.2-52.8,62.6-99.5
	c0.2-7.1-1.4-14-9.4-9.6c-14.6,7.9-28.4,12.3-48.8,12.3c-9.9,0-19-3.2-26.5-7.3c-4.6-1.8-10.1-4.1-16.7-7.1
	c-17.5-9.9-23.4-3.9-31.2,4.4c-4.3,4.6-8.6,11.9-11.5,17.6c6.3,28.5,22.6,72.9,54,72.9c5.5,42.6,17.2,55.9,13.6,79.9
	c-16.6-41.9-45.8-75-55.9-79.9c-10-4.9-14.9,8.8-14.9,15.6c0,29.1,12.7,67.9,93.6,134.5c3-17,16.7-29.6,22.6-34.3
	c0.3,0.9,0.6,1.8,0.9,2.8c-1.9,5.6-4.7,15-4.7,23.1c0,19,17.1,33.1,25.3,33.1h86.6c8.1,0,25.3-14.1,25.3-33.1c0-8-2.8-17.5-4.7-23.1
	c0.3-1,0.6-1.9,0.9-2.8c5.9,4.7,19.6,17.3,22.6,34.3c80.9-66.6,93.6-105.4,93.6-134.5C1210.9,818.3,1206,804.6,1196,809.5
	 M1029.9,976.6l-15.4-12.4c0,0,4.2-2.6,15.4-2.6c11.1,0,15.4,2.6,15.4,2.6L1029.9,976.6z M1064.5,897.9c8.8,8.5,11,18.8,11,18.8
	s-14.9-11.8-46.1-12.1c-31.2,0.3-46.1,12.1-46.1,12.1s2.3-10.4,11-18.8c-18.2-7.8-25.3-24.7-25.3-24.7s16.6,15,32.5,15
	c14.3,0,18.9-0.5,26.4-0.6c0.1,0,0.2,0,0.3,0c0.4,0,0.8,0,1.2,0c0.4,0,0.8,0,1.2,0c0.1,0,0.2,0,0.3,0c7.5,0.1,12.1,0.6,26.4,0.6
	c15.9,0,32.5-15,32.5-15S1082.7,890.1,1064.5,897.9 M1102.7,865.4c-7.9,0-22-1.9-33.6-1.9c-11.6,0-30.2,6.5-38.5,6.5
	c-0.4,0-0.8,0-1.2-0.1c-0.4,0-0.8,0.1-1.2,0.1c-8.3,0-26.9-6.5-38.5-6.5c-11.6,0-25.7,1.9-33.6,1.9h-14.5c0,0,40-20.1,66.3-20.1
	c9.3,0,11,7.2,20.3,7.2c0.4,0,0.8,0.1,1.2,0.1c0.4,0,0.7-0.1,1.2-0.1c9.2,0,11-7.2,20.3-7.2c26.3,0,66.3,20.1,66.3,20.1H1102.7z"/>
<rect x="708.6" y="1125.1" class="st0" width="59.6" height="30.9"/>
<rect x="497.9" y="1125.1" class="st0" width="59" height="30.9"/>
<rect x="497.9" y="1613.4" class="st0" width="514.1" height="31.5"/>
<rect x="1251.5" y="1125.1" class="st0" width="172.3" height="35.1"/>
<rect x="1423.7" y="1202" class="st0" width="151.7" height="31.5"/>
<polygon class="st0" points="1221.1,1613.4 1099.8,1535.5 1099.8,1572.9 1211.9,1644.9 1463.3,1644.9 1575.4,1572.9 1575.4,1535.5 
	1454.1,1613.4 "/>
<path class="st5" d="M1125.9,350.9c-0.2-0.5-0.5-1-0.7-1.5c-8.6-19.1-3.8-24.5-3.6-24.7c-6,0.2-19.9,9.6-19.9,23.9
	c0,14.5,19.5,35.8,19.5,71c0,25.6-18.6,52.2-48,64.8l-0.3-0.3c-11.2,4.9-24,7.8-37.9,7.8c-1.7,0-3.3,0.2-5.1,0.5
	c-1.7-0.3-3.4-0.5-5.1-0.5c-14,0-26.8-2.9-37.9-7.8l-0.3,0.3c-29.4-12.6-48-39.2-48-64.8c0-35.2,19.5-56.6,19.5-71
	c0-14.5-14.3-23.9-20.1-23.9c0,0,5.2,5.2-3.6,24.7c-0.8,2.6-2.8,6.9-4.2,10.3c-5.9,13.4-14.9,33.6-14.9,60c0,35.7,25,70.4,62.2,86.3
	c1.5,0.6,3,1.1,4.5,1.4c13.5,5.3,27.9,8,42.8,8h0c0,0,0.3,0,1.1,0.2c1.3,0.2,2.7,0.3,4,0.3c1.3,0,2.7-0.1,4-0.3
	c0.8-0.1,1.1-0.2,1-0.2c15,0,29.4-2.7,43-8c1.5-0.3,3-0.8,4.5-1.4c37.2-15.9,62.1-50.6,62.1-86.3c0-26.4-9-46.6-14.9-60
	C1128.4,356.9,1126.9,353.5,1125.9,350.9"/>
<path class="st5" d="M910.5,1348.2h37.6l95.5-83.7v-33.2l-131,114.3C911.8,1346.3,911.1,1347.2,910.5,1348.2"/>
<path class="st5" d="M568.3,700.3H423.7c1.9,32.5,10.9,137.8,52.5,271.3H622l11-4.8c0.3-7,2.8-14.1,9.2-17.8
	c5.2-3,55.6-31.3,77.1-43.4l9-5.1c1.4-0.8,2.8-1.4,4.3-2c0.3-0.1,0.6-0.2,0.9-0.3c1.5-0.5,3-0.9,4.5-1.2c0.3-0.1,0.5-0.1,0.8-0.1
	c1.4-0.3,2.9-0.5,4.4-0.6c0.3,0,0.5-0.1,0.8-0.1c1.6-0.1,3.3-0.2,5-0.1c0.4,0,0.7,0,1.1,0c1.7,0.1,3.4,0.1,5.1,0.3
	c0.1,0,0.2,0,0.3,0c1.7,0.2,3.3,0.4,5,0.7c0.4,0.1,0.8,0.1,1.2,0.2c1.7,0.3,3.3,0.6,5,1c0.4,0.1,0.7,0.2,1.1,0.3
	c1.5,0.3,2.9,0.7,4.3,1.1c0.3,0.1,0.6,0.2,0.9,0.2c1.6,0.4,3.1,0.9,4.6,1.3c0.4,0.1,0.9,0.3,1.3,0.4c1.4,0.5,2.8,0.9,4.2,1.4
	c0,0,0,0,0,0c2.7-8.2,6.7-18.2,16-26.9c7.9-7.4,22.1-13.5,35.3-17.9c-1.4-4.5-2.5-8.8-3.2-12.9C694,831.5,610.7,754.4,568.3,700.3"
	/>
<path class="st5" d="M1491.4,700.3c-42.4,54.2-125.6,131.2-262.7,144.8c-0.7,4.1-1.8,8.4-3.2,12.9c13.2,4.5,27.4,10.5,35.3,17.9
	c9.2,8.7,13.3,18.7,15.9,26.9c0,0,0,0,0,0c1.3-0.5,2.8-0.9,4.2-1.4c0.4-0.1,0.9-0.3,1.3-0.4c1.5-0.5,3-0.9,4.6-1.3
	c0.3-0.1,0.6-0.2,0.9-0.2c1.4-0.4,2.8-0.7,4.3-1.1c0.4-0.1,0.7-0.2,1.1-0.3c1.6-0.4,3.3-0.7,4.9-1c0.4-0.1,0.8-0.1,1.2-0.2
	c1.7-0.3,3.3-0.5,5-0.7c0.1,0,0.2,0,0.3,0c1.7-0.2,3.4-0.3,5.1-0.3c0.4,0,0.8,0,1.1,0c1.7,0,3.3,0,5,0.1c0.3,0,0.5,0.1,0.8,0.1
	c1.5,0.1,3,0.3,4.4,0.6c0.3,0.1,0.5,0.1,0.8,0.1c1.6,0.3,3.1,0.7,4.5,1.2c0.3,0.1,0.6,0.2,0.9,0.3c1.5,0.6,2.9,1.2,4.3,2l9,5.1
	c21.5,12.1,71.9,40.4,77.1,43.4c6.4,3.7,8.9,10.9,9.2,17.8l11,4.8h32.8l70.3,45.1l14.6,6.4c3.9-11.8,7.8-23.6,11.4-35.7
	c45.9-141,55.6-253.4,57.5-287.1H1491.4z"/>
<path class="st3" d="M1300.6,953.1l-0.4,0.2c-2.5,4.1-5.3,8.7-8.5,13.8c-1,1.5-2,3-3,4.6h14c3.1-4.9,5.8-9.3,8.1-13.1l5.1-8.6
	c6.8-10.8,12.1-19.9,16-27.2c3.4-6.2-16.5-11.4-16.5-11.4s4.7,8.2,0.4,16.4C1311.6,935.1,1306.6,943.6,1300.6,953.1"/>
<path class="st3" d="M725.2,922.7c3.9,7.2,9.2,16.4,16,27.2l5.1,8.6c2.3,3.8,5,8.2,8.1,13.1h14c-1-1.5-2.1-3.1-3-4.6
	c-3.2-5-6.1-9.6-8.5-13.8l-0.4-0.2c-5.9-9.5-11-18-15.2-25.4c-4.3-8.2,0.4-16.4,0.4-16.4S721.8,916.5,725.2,922.7"/>
<path class="st3" d="M1020.7,1251.3l9.3-8.1l-10.8-8.2c-87.1-69-149.3-133.3-192.3-185c-0.8-1-1.6-2-2.5-3.1v18.1
	c43.1,50.8,104.2,113.1,187.8,179.3L1020.7,1251.3z"/>
<polygon class="st3" points="1012,1404.4 860.3,1404.4 860.3,1516 708.6,1516 708.6,1125.1 768.2,1125.1 768.2,1027.7 497.9,1027.7 
	497.9,1125.1 556.9,1125.1 556.9,1516 497.9,1516 497.9,1613.4 1012,1613.4 "/>
<polygon class="st3" points="1575.4,1105.6 1454.1,1027.7 1221.1,1027.7 1099.8,1105.6 1099.8,1535.5 1221.1,1613.4 1454.1,1613.4 
	1575.4,1535.5 1575.4,1439.2 1423.7,1439.2 1423.7,1516 1251.5,1516 1251.5,1125.1 1423.7,1125.1 1423.7,1202 1575.4,1202 "/>
<path class="st3" d="M764.8,1181.3v278.6h39.3v-111.6h108.5c-59.9-59.1-108-116-145.9-167H764.8z"/>
<path class="st3" d="M1307.6,1181.3v276.9c9.3-11,18.6-22.3,28-34.1c47.7-61.3,84.7-117,113.4-166h-81.5v-76.9H1307.6z"/>
<path class="st3" d="M1068.2,1669.6H956.7c36.6,29.4,61.7,46.6,67.3,50.4c7.9-5.3,53.8-36.9,116.4-91.7l-72.2-46.4V1669.6z"/>
<path class="st3" d="M854.8,589.4c37.1-27.3,72.4-37.7,168.9-37.7c2.2,0,4.1,0,6.2,0c2,0,4,0,6.2,0c96.5,0,131.8,10.4,168.9,37.7
	c37.1,27.3,111.5,86.8,202.8,86.8c32.3,0,64.9-14.4,88.5-27.9c-1.9-5.1-6.7-10.3-15.7-16.1c-10.4-6.6-54.8-34.3-104.8-104.6
	c-109.5-143.8-198.3-186.1-235.3-198.2c-0.2,0.8-0.4,1.7-0.7,2.5c0.3,1.5,1,4.6,3.3,9.5l0.5,1c0.3,0.5,0.5,1.1,0.7,1.7
	c0.8,2.2,2.2,5.2,3.3,7.7c6.2,14,16.6,37.4,16.6,67.9c0,43.4-29.7,85.2-74,104.2c-2.1,0.9-4.2,1.6-6.4,2.2
	c-14.9,5.6-30.8,8.6-47.1,8.8c-2.2,0.3-4.4,0.5-6.6,0.5c-2.2,0-4.5-0.2-6.7-0.5c-16.3-0.2-32.2-3.1-47.1-8.8
	c-2.2-0.6-4.4-1.3-6.5-2.2c-44.2-19-74-60.8-74-104.2c0-30.6,10.4-53.9,16.6-67.9c1-2.2,3-6.8,3.5-8.4c0.2-0.7,0.5-1.3,0.8-2
	c2.2-4.9,3-8,3.2-9.5c-0.3-0.8-0.5-1.6-0.7-2.4C882,341.7,793.3,384.1,684,527.6c-49.9,70.2-94.3,98-104.7,104.6
	c-9,5.7-13.8,11-15.7,16.1c23.6,13.6,56.2,27.9,88.5,27.9C743.3,676.2,817.7,616.8,854.8,589.4"/>
</svg>
