<?xml version="1.0" encoding="utf-8"?>
<!-- Generator: Adobe Illustrator 22.1.0, SVG Export Plug-In . SVG Version: 6.00 Build 0)  -->
<svg version="1.1" id="Layer_1" xmlns="http://www.w3.org/2000/svg" xmlns:xlink="http://www.w3.org/1999/xlink" x="0px" y="0px"
	 viewBox="0 0 2048 2048" style="enable-background:new 0 0 2048 2048;" xml:space="preserve">
<style type="text/css">
	.st0{fill:#FFFFFF;}
	.st1{fill:#00502F;}
	.st2{fill:#F37321;}
	.st3{fill:#00704A;}
</style>
<path class="st0" d="M1796.9,831.7h-173.5c-20.7-53.2-48.7-103.6-83.2-149.9c-61.5-82.6-139.2-147.3-231-192.4
	c-69.6-34.2-147.2-55.8-225.2-63l-60.1-185l-60.2,185.3c-115.4,11.2-225.7,53.8-319.6,123.7c-69.3,51.6-126.5,115.3-169.9,189.2
	c-17.2,29.3-32.2,60.2-44.5,92H251.1l146.6,111.9c-1.8,9.4-3.4,18.7-4.7,27.8c-12.1,82.3-8.2,164.8,11.5,245.2
	c20.4,83.3,56.9,160.7,108.5,230c26.9,36.1,57.3,69.2,90.5,98.5l-83.8,261.4l221.4-169c0.9,0.5,1.9,0.9,2.8,1.4
	c87.5,43,185.5,65.7,283.2,65.7c99.2,0,194-22,282-65.5l219.3,167.4l-82.7-258c53-45.8,97.8-99.5,133.3-159.8
	c41.9-71.4,69.3-149.4,81.3-231.6c10.6-72.6,8.9-145.5-5.2-217L1796.9,831.7z"/>
<path class="st1" d="M1737.8,851.7h-128.1c-20.5-56.2-49-109.2-85.4-158c-59.5-80-134.8-142.7-223.8-186.3
	c-71.9-35.3-151.1-56.5-231.3-62.1L1024,306.2l-45.3,139.4c-116.8,8.8-227.5,50.2-322.6,121c-67.2,50-122.6,111.7-164.6,183.3
	c-19.1,32.6-35.1,66.7-47.9,101.9H310.2l109.5,83.6c-2.7,12.9-5.1,25.9-7,39c-11.7,79.7-7.9,159.6,11.1,237.6
	c19.7,80.7,55.1,155.7,105.1,222.8c28.9,38.8,61.5,73.5,97.6,104L558.1,1752L739,1614c4.5,2.4,9.1,4.7,13.7,7
	c84.8,41.6,179.7,63.6,274.4,63.6c100.1,0,196.7-23.6,284.1-69l178.7,136.4l-67.4-210.2c55.8-46.1,102.5-101,139.1-163.3
	c40.6-69.2,67.1-144.7,78.8-224.4c10.9-74.5,8.4-149.3-7.6-222.4L1737.8,851.7z M1352.1,821.9c7.2,9.7,13.9,19.7,20.2,29.8h-171
	L1144,675.5C1226.3,700.1,1299,750.5,1352.1,821.9 M903.4,677.4l-28.2,86.9l-2.7-5.3H759.1c8.1-7.1,16.4-13.8,25.2-20.3
	C820.9,711.5,861,691,903.4,677.4 M726,791.6v60.1h-45.1C693.9,830.5,708.9,810.4,726,791.6 M621.8,1089.5L726,1169v39.4h6.4
	l-31.4,97.9C652.3,1240.8,626.4,1165.4,621.8,1089.5 M1026.9,1470c-29.7,0-58.9-3.2-87.1-9.3l84.2-64.3l85.3,65.1
	C1082.5,1467.1,1054.9,1470,1026.9,1470 M1348.6,1311.2l-24.4-76.2v-67.6l107.5-82C1427.3,1166.2,1399.1,1245.3,1348.6,1311.2"/>
<path class="st2" d="M1500.8,711.2C1305.9,449.3,935.5,395,673.6,590c-261.9,195-316.2,565.3-121.2,827.3
	c195,261.9,565.3,316.2,827.3,121.2C1641.5,1343.5,1695.8,973.1,1500.8,711.2 M557.9,1257.1l-20.3,35.6l-3.8-41.8l-36.7-9.4
	l34.5-14.6l-3.5-40l26.3,30.3l34.5-14.6l-18.8,32.9l27.4,31.8L557.9,1257.1z M1286.3,1413.1c-192.7,143.4-465.2,103.5-608.7-89.2
	c-143.4-192.7-103.5-465.2,89.2-608.7c192.7-143.4,465.2-103.5,608.7,89.2C1519,997.2,1479,1269.7,1286.3,1413.1 M1528.3,1292.7
	l-20.3-35.6l-39.7,10.2l27.4-31.8l-18.8-32.9l34.5,14.6l26.3-30.3l-3.5,40l34.5,14.6l-36.7,9.4L1528.3,1292.7z"/>
<path class="st2" d="M1078.3,777.5H966.7v206.8L862,779.2l-0.9-1.7H744.5V1190h111.7V984.1l105.6,205.7l110.5,0.1v209.8h111.6
	v-169.9h121.8v-94.4h-121.8v-53.8h176.4v-94.3h-281.9V777.5z M846.8,971.4v209.3h-93v-1.2l48.1-57.2l0.4-252.2l44.5,88.9V971.4z
	 M804.1,850.7l50.2-63.8h1.1L938,948.7l76.2,162.5L804.1,850.7z M1069,1180.6l-93.9-0.1l49-58.3l0.4-283.1l44.5-51.3V1180.6z
	 M1127.7,1033.3h194.1l32.3-39.1v81.4h-176.4v64.3l-49.9,33.6V1033.3z M1129,1340.1v-158.7h138.3l32.3-39.1v81.4h-121.9v169.9h-99.3
	v-0.2L1129,1340.1z"/>
<path class="st0" d="M520.5,1334.3c-131.8-246.2-67.2-558.4,163.6-730.2c230.8-171.8,548.4-144.1,746.5,52.8
	c20,19.9,70.3,54.3,70.3,54.3C1305.9,449.3,935.5,395,673.6,590c-261.9,195-316.2,565.3-121.2,827.3
	C552.4,1417.2,533.8,1359.2,520.5,1334.3"/>
<path class="st0" d="M1286.3,1413.1c-192.7,143.4-465.2,103.5-608.7-89.2c0,0,19.9,54.4,39.7,72.8
	c157.3,146.6,401.7,164.7,580.4,31.7c175.8-130.8,229.8-364.5,140.7-555.7c-12.9-27.6-62.9-68.3-62.9-68.3
	C1519,997.2,1479,1269.7,1286.3,1413.1"/>
<polygon class="st0" points="752.9,1062.2 774.7,807 830.3,785.9 752.9,785.9 "/>
<polygon class="st0" points="975.1,942.4 997.1,807 1048.4,785.9 975.1,785.9 "/>
<polygon class="st0" points="1080.6,995.8 1080.6,1272 1102.4,1015.9 1267.7,995.8 "/>
<path class="st3" d="M1620.4,883.8c0.7,2.4,1.4,4.7,2.1,7.1l19.9-6.8l0.4-0.3H1620.4z"/>
<path class="st3" d="M873.8,1140.7v67H766.3l-41.1,128.3c24.1,26.9,51.3,50.1,80.8,69.2l143.5-200.2l-38.7-75.4L873.8,1140.7z"/>
<path class="st3" d="M619.9,1664.4l0.8-0.6l60.3-84.2c-9.4-6.3-18.6-12.8-27.6-19.6L619.9,1664.4z"/>
<path class="st3" d="M940.4,667.6l-44.9,138.3L949,910.7V759.8h77.6l-0.7-101.4C996.8,658.4,968.2,661.6,940.4,667.6"/>
<path class="st3" d="M726.8,883.8h-63.6c-12.2,24.7-21.8,50.6-28.8,77.1l92.4,31.3V883.8z"/>
<path class="st3" d="M1201.5,1247.6v102.3l41.4,57.6c8.8-5.6,17.5-11.5,25.9-17.8c20.2-15.1,38.6-31.7,55.2-49.5l-29.7-92.6H1201.5z
	"/>
<path class="st3" d="M1368.4,1582l58.7,81.7l0.9,0.7l-32.5-101.4C1386.6,1569.6,1377.6,1575.9,1368.4,1582"/>
<path class="st3" d="M1417.4,955.1c-6.8-24.3-15.8-48.2-27.3-71.3h-212l-60.9,85.8h260.7L1417.4,955.1z"/>
<path class="st1" d="M721.4,1449.2l0.5-0.6c2.4-2.6,9.5-21.7-10-39.8c-19.5-17.7-37.5-37.1-53.8-58.1l-8.9,9.7c0,0,4.3,7.4,4.7,8.4
	c0.6,1.5,0.1,3.2-1.6,5l-11.9,12.6c-0.2,0.2-0.5,0.4-0.8,0.7c-1.5,1-3.6,1.3-6.2,1c-2.3-0.4-4.7-1.4-7-3l-0.3,0.8
	c2.1,2.8,3.2,5.5,3.3,8c0.2,2.3-0.1,3.9-0.8,4.9l-16.5,17.5c-1.4,1.5-2.7,2.2-3.9,2.2c-0.9,0.2-2.9-1-5.8-3.8l-2.4-2.3
	c-0.1-0.1-0.2-0.1-0.3,0l-5.7,6c12.3,15,25.1,29.3,38.7,42.8c1.3-1.2,2.3-2,2.4-2.1l0.1-0.1l6.3-6.6l0.5-0.5
	c-2.2-2.1-3.4-3.6-3.6-4.7c-0.4-1.3,0.6-3.1,2.9-5.6l10.8-11.4c0,0,0.1,0,0.2,0l7.6,7.2c0,0.2-0.3,2-1.2,5.5
	c-1.7,9.2-3.1,14.3-4.2,15.4l-0.2,0.3c-1.3,1.3-3,1.3-5.1,0c-1.2-1-1.8-1.4-1.8-1.4l-7.1,7.5c0,0-0.9,0.8-2.2,1.9
	c14,13.6,28.6,26.4,43.9,38.3l6.6-8.5c0,0,0-0.1-0.1-0.2c-1.3-1.3-2.3-3.3-3.1-6c-0.4-2.5-0.5-4.7-0.4-6.6
	c0.8-4.6,2.8-14.8,6.2-30.4l0.5-0.6c0.1,0,0.5,0.1,1,0.3c2.1,1,5.1,1.8,8.9,2.4C710.1,1456.2,716.7,1454.1,721.4,1449.2
	 M689.2,1418.7l-0.7,0.7c-3.4,3.6-7.1,5.7-11,6.2c-5.1,0.6-9.9-1.2-14.5-5.5l-0.6-0.5c4.4-4.6,11.6-12.3,21.7-23.1
	c2.7,2.6,4.7,5.1,6.1,7.6C693.3,1409.9,692.9,1414.8,689.2,1418.7"/>
<path class="st1" d="M758.7,1446.2l-6.6,11.3c-0.1,0.1,0,0.2,0,0.2l5.9,3.4c2.3,1.3,3.1,2.6,2.4,3.9l0,0.1
	c-0.2,0.4-5.4,4.8-15.5,13.2c-0.2,0.3-1.8,0.9-4.7,1.8c-1.6,0.6-3.6,0.9-6.1,0.8c-3.2-0.5-5.9-1.4-8.2-2.7l-0.2,0.4
	c1.3,0.9,2.6,2.7,3.8,5.1c1,3,0.9,5.6-0.3,7.8c-10.7,9.2-16.8,14.3-18.6,15.4c-2.8,2-5.9,2-9.5,0l-2.8-1.6c-0.1,0-0.1,0-0.2,0
	l-4.8,8.3c13.1,9.7,26.7,18.9,40.8,27.5c0.9-1.3,1.5-2.3,1.5-2.3l5.2-9.1c0-0.1,0-0.1-0.1-0.1l-1.8-1.1c-0.9-0.5-1.8-1.2-2.5-2
	c-0.9-1.1-0.9-2.4-0.1-3.9l0.1-0.2c0.1-0.2,1.3-1.2,3.6-3c1.1-1,1.7-1.4,1.8-1.3l30.9,17.6c-0.6,3.8-1.2,6.4-2,7.8l-0.3,0.5
	c-0.3,0.5-0.7,0.8-1.3,0.9c-0.9,0.1-2.3-0.4-4.3-1.5l-3.6-2c-0.1,0-0.1,0-0.2,0l-5.2,9.1c0,0-0.6,1-1.5,2.5
	c8.3,4.6,16.7,9.1,25.3,13.3c8.7,4.3,17.5,8.3,26.4,12.1l4.9-8.5c0,0,0-0.1-0.1-0.1l-2.5-1.5c-1.5-0.8-2.6-1.9-3.4-3.1
	c-0.6-0.9-0.7-2.5-0.5-4.8c0.3-2.1,1.7-9.3,4.3-21.4c0.2-0.1,0.4-0.1,0.4-0.2c1.2-2.1,2.8-3.6,4.9-4.5c2.5-1.2,5.6-0.9,9.3,0.6
	l0.3-0.5l-0.1-0.1c-3.6-2.1-6.4-4.7-8.5-7.9c-1.3-2.4-2-4.8-2.1-7.2l4.4-21.6c0.7-1.3,2.4-1.2,5,0.3l5.4,3.1c0.1,0,0.1,0,0.2-0.1
	l6.7-11.4C808,1477.4,782.6,1462.9,758.7,1446.2 M776.2,1515.2l-18.8-10.7c15.6-13.2,23.6-20,24.2-20.5l0.8,0.5
	C779.1,1501.4,777,1511.7,776.2,1515.2"/>
<path class="st1" d="M929.6,1520.7l-2.5,12.6c-0.1,0.3,0,0.4,0.2,0.5l4.8,1.1c1.7,0.4,3,1,4,1.7c1,0.9,1.2,2.5,0.6,5l-7.8,32.6
	l-0.9-0.2c-0.5-1.6-5-13.6-13.6-36.2c-2.3-6.1-5.4-14.9-8.2-22.7c-18.3-4.9-35.5-10.5-53-17.6l-4.1,13.8c0,0.1,0,0.1,0.1,0.1
	c0,0,7.9,3.4,8.6,4.1c0.8,0.9,0.8,2.7,0.2,5.4l-3.6,16.3c-0.1,0.3-0.3,0.8-0.8,1.6c-1.9,2.7-4.3,4.5-7,5.2c-2.2,0.6-4.4,0.7-6.5,0.5
	l-0.1,0.4c2.4,1.1,4.5,2.5,6.2,4.3c2,2.1,3.1,4.8,3.4,8.1l-4.3,18.1c-0.4,1.7-0.9,3-1.6,3.8c-0.8,1.3-2.6,1.6-5.4,0.9l-5-1.2
	c-0.1,0-0.7,2-0.7,2l-1.8,7c16.5,6.1,33.2,11.5,50.2,16.1l2.5-10.8c0-0.1,0-0.1-0.1-0.1l-5.2-1.2c-2.2-0.5-3.6-1.3-4.1-2.3
	c-0.7-0.6-0.5-3,0.5-7.3l6.8-28.4c0-0.1,0.1-0.1,0.1-0.1l0.8,0.2l13.5,35.3c1.9,5.1,4.7,12.9,7.5,20.3c15.3,3.4,32.9,7,48.4,9.1
	l6-35.3c0.2-0.7,1.3-2.1,3.4-4c2.3-1.8,5.6-2.7,9.7-2.7c0.2-0.3,0.3-0.6,0.2-0.9l-1.1-0.5c-1.8-0.8-3.4-2.2-4.9-3.9
	c-1.7-2.4-2.5-5-2.5-7.9l3.4-14.3c0.4-1.7,0.9-2.9,1.6-3.7c0.8-1.3,2.6-1.5,5.7-0.8l4.8,1.1c0.2,0,0.3,0,0.3,0l3.2-17.1
	C963.9,1527,946.6,1524.3,929.6,1520.7"/>
<path class="st1" d="M1059.4,1575.4c-0.1,0-0.1,0.1-0.1,0.2l0.8,11.2c0,0.1,0.1,0.1,0.1,0.1l3.2-0.2c2.6-0.2,4.4-0.1,5.6,0.2
	c1.3,0.4,2.2,1.3,2.2,4.5c0.2,8.6-1.9,17.8-13.5,19.3c-11.6,1.5-15.2-5.6-16.3-8.4c-2.3-8.5-2.4-23.1-1.2-24.2
	c1.6-1.3,2.9-2.2,4.1-2.6c1.7-0.7,3.3-1.2,4.7-1.6l0.1-0.6c-2.1-0.2-3.8-0.6-5.1-1.1c-4.3-1.2-5.7-6.8-6.5-12.3
	c0.2-12.3,7.2-18,16.3-18c9.1,0,12.9,12.8,13.4,19.8c0,0.1,0.1,0.2,0.1,0.2l44.7-4.9l-5.9-32.7c0,0-14.4,2.4-21.7,3.2
	c-0.1,1.7-0.3,3.8-0.5,5.4l0,0.1l-2.6-0.8c-5.8-1.4-15.6-2.5-30.6-1.8c-15,0.8-20.4,1.8-23.8,2.9c-3.6,1.1-7.8,3.1-12.3,5.9
	c-1.6,0.9-4.3,2.8-8,5.9c-5.7,5.1-9.7,10.4-12.2,15.9c-0.8,2.1-1.5,4.5-2.2,7.2c-0.3,2.4-0.7,3.9-1.4,4.4c-0.1,0.7-1,1.6-2.7,2.8
	c-1.6,1.3-3.9,2.3-7,2.9l-0.1,0.6c2.1,0.3,4.2,0.9,6.5,2c1.9,1.2,3.2,2.3,3.8,3.5c0.6,2.9,1.1,5.3,1.6,7.2c1.1,3.7,2.1,6.5,3.1,8.3
	c4.5,8.7,11.6,14.9,21.3,18.7c5.5,2.5,14.8,5.2,32.8,4.4c18-0.8,24.3-3.2,28.9-5.2c2.7-1,6-3,10-5.9l1.2-0.1
	c0.5,1.5,1.8,4.5,3.3,7.8c8.9-1,17.7-2.3,26.4-3.8c-1.2-11-2.5-24.6-2.9-30.3c-0.2-2.1,1-3.6,3.5-4.8l2.3-0.7l-1.3-11.3
	L1059.4,1575.4z"/>
<path class="st1" d="M1213.3,1559c0,0,0.4,3.5,1.2,9.1c0.4,1.2,0.2,2.8-0.5,4.7c-0.8,2.1-3.6,3.9-8.3,5.6l-6.2,2.1
	c-0.3,0.1-0.8,0.2-1.3,0.3c-1.9,0.1-3.1-0.4-3.5-1.6c-3.7-11-7-22.9-7-22.9l22.8-7.8l-4-12.4l-22.8,7.8l-6.3-19.1
	c-0.7-2,1-3.6,4.9-5l8.4-2.9c3.1-1.1,5.4-0.8,7,0.9c0.2-0.1,0.1,0.3,4.1,10.2c0,0.1,0.1,0.1,0.3,0l24.5-8.4c0.1,0,0.1-0.1,0.1-0.1
	l-12.5-27.9c-30.6,13.7-57.8,22.6-90.6,29.4c0.3,0.9,3.2,13.6,3.2,13.6c0,0.1,5.9-1.7,5.9-1.7c2-0.7,3.6-1,4.6-0.8
	c1.4,0.2,2.5,1.5,3.4,4.1l4.8,13.7c0.6,1.7,0.4,3.6-0.5,5.9c-0.8,2-3.4,4.4-7.7,7.1l0.1,0.4c4.7-0.4,8.2,0,10.3,1.1
	c2,0.7,3.5,2.6,4.6,5.5l6.2,18.2c0.7,1.9,0.7,3.4,0.3,4.5c-0.1,1-2.1,2.2-5.8,3.5l-4.9,1.7c-0.1,0-0.2,0.1-0.2,0.3l2.8,11.4
	c32.5-7.4,67.7-18.7,98.4-31.8c-0.6-1.8-12-26.9-12-26.9C1237,1550.9,1213.3,1559,1213.3,1559"/>
<path class="st1" d="M1369.8,1492.2c-1.6,0.9-3.8,1.4-6.6,1.4c-2.5-0.2-4.7-0.7-6.4-1.4c-4.3-1.9-13.6-6.6-27.8-13.9l-0.4-0.7
	c0-0.1,0.2-0.4,0.6-0.9c1.5-1.8,3-4.5,4.6-7.9c3-8.1,3.4-14.1-1.2-21.6c-4.6-7.4-21.2-12.8-46,4.5c-20.1,13.5-41.1,25.4-62.7,35.6
	l5.6,9.2c0,0.1,0.1,0,0.3-0.1l4.1-2.5c1.7-1,3-1.6,4.1-1.8c1.6-0.2,3.1,0.7,4.4,2.9l9.1,14.8c0.2,0.3,0.3,0.6,0.4,1
	c0.5,1.7,0.3,3.8-0.7,6.2c-1,2.1-2.6,4.1-4.7,6l0.8,0.5c3.3-1.2,6.2-1.6,8.6-1.1c2.2,0.4,3.7,1.1,4.5,2.1l12.6,20.5
	c1.1,1.7,1.4,3.1,1.1,4.3c0,1-1.7,2.5-5.1,4.6l-2.8,1.7c-0.1,0-0.1,0.1-0.1,0.3c0,0,3.1,4.8,6.9,10.5c17.2-8.5,34.1-17.9,50.6-28.2
	c-4.2-6.4-7.9-12.1-7.9-12.1l-0.4-0.6c-2.6,1.6-4.4,2.3-5.5,2.2c-1.3,0.1-2.9-1.4-4.7-4.3l-8.2-13.4c0,0,0-0.1,0-0.2l8.9-5.5
	c0.2,0,1.9,0.9,5,2.5c8.4,4.1,13,6.7,13.8,8l0.2,0.3c1,1.6,0.5,3.2-1.3,5c-1.2,0.9-1.8,1.4-1.8,1.4c0,0,4.4,6.3,8.6,12.3
	c10.3-6.7,20.5-13.8,30.5-21.2c5.3-3.9,10.4-7.9,15.5-12c-3.2-4.7-6-8.7-6-8.7C1370,1492.1,1369.9,1492.1,1369.8,1492.2
	 M1298.9,1484.3c-0.7,5.1-3.8,9.3-9.1,12.5l-0.7,0.4c-3.3-5.4-8.9-14.4-16.7-26.9c3.2-1.9,6.1-3.2,8.9-3.9c6.4-1.4,11,0.2,13.8,4.8
	l0.5,0.8C1298.3,1476.3,1299.4,1480.4,1298.9,1484.3"/>
<path class="st1" d="M1453.3,1399l-1.2-1.3c-1.2-1.2-2.8-2.2-4.8-3c-5.1-1.7-11.3-1.4-18.6,1.1c-6,2.3-9.7,2.7-11.1,1.3
	c-0.9-1-1-2.7-0.3-5.1l-0.6,0.1c-2,2.1-3.6,3.9-5,5.2c-5.7,5.5-11.3,9.3-16.6,11.3c-3.1,1.2-7.2,2.5-12.3,3.9
	c-3.6,1.2-6.6,0.6-9.1-2c-1.9-2-2.8-4.5-2.5-7.6c0.6-3.2,1.9-5.6,3.7-7.4l0.3-0.3c1.5-1.4,3.2-2.4,5.3-3.1c1-0.3,2.1-0.3,3.1,0.2
	c3.7,2,6.6,4.1,8.6,6.3c0.1,0.1,0.2,0.1,0.2,0l26.2-25.4c0.1-0.1,0.1-0.1,0-0.2l-22.4-24c-9.1,11.8-18.7,23.2-29,34.1
	c-5.1,5.4-20.6,24.5-22.4,27.5c-1.5,2.5-2.8,5.3-3.9,8.3c-3.4,11.1-2,20,4.5,26.6l0.3,0.3c3,3.1,8.3,3.9,15.9,2.1
	c3.7-1.1,6.2-1.1,7.3,0.2c1.1,1.3,1.2,3,0.2,5.1l0.4,0c0.5-0.5,1.4-1.4,2.7-2.7l1.1-1c7.3-7,14.9-11.9,22.9-14.8
	c12.7-5.4,20.8-6.3,24.3-2.7c0.7,0.7,1.4,1.9,2.2,3.5c1.6,4.7,0.5,9-3.4,12.7c-2.7,2.6-6.4,3.6-11.1,3c-3.9-1-6.6-2.2-8.1-3.8
	c-0.2-0.2-0.3-0.2-0.5-0.1l-24.3,23.1c-0.1,0.1-0.1,0.2-0.1,0.3c0,0,8.6,9.5,15.8,17.5c12.5-10.7,24.4-21.8,35.8-33.4
	c8.3-8.5,33.5-33.2,30.4-49C1456.2,1402.9,1454.9,1400.6,1453.3,1399"/>
<path class="st1" d="M1222.2,580.4l-0.5,0.6c4.7,4.5,6.1,8.8,4.1,12.7c-0.2,0.1-0.3,0.3-0.4,0.5l0,0.1c0.1,0.2,0.1,0.4,0,0.6
	c-1.5,4-2.3,7-2.5,9c-0.5,2.7-0.7,5.7-0.6,9c0.2,3.9,1,7.7,2.2,11.4c0.7,2,2.1,5,4.3,8.8c6.6,10.2,16.2,18.8,28.6,25.9
	c6.3,3.6,13.1,6.5,20.3,8.6c12.9,3.6,24.1,3.3,33.6-0.7c3-1.2,6.4-3.2,10.1-6c1.9-1.6,4.1-3.9,6.7-6.9c1.9-2.6,2.9-3.9,2.9-3.8
	c2.1-1.3,4.8-1.7,8.1-1.2c1.1,0.2,2.7,0.6,4.7,1.4l0.2-0.4c-0.2-0.1-0.8-0.6-1.7-1.3c-3.5-3-5.4-5.8-5.9-8.1
	c-0.4-1.2-0.2-2.5,0.3-4.1c1.2-5.5,1.7-9.9,1.5-13.3c0-2.3-0.5-5.1-1.3-8.5c-0.6-2.3-1.6-4.9-2.8-7.9c-1.1-2.2-2.1-4.3-3.2-6.1
	c-1.7-2.6-3.4-4.9-5.1-6.9c-6.5-7-13.2-12.5-20.2-16.5l-2.9-1.6c-5.8-3.3-12.6-6-20.2-7.9c-9.9-2.6-19.6-2.6-29,0.3
	c-3.5,1.1-7.2,2.9-11.3,5.6c-2.5,1.9-4.8,3.8-6.9,6c-0.8,1.4-2.9,2.1-6.3,2.2C1226.6,581.6,1224.4,581.2,1222.2,580.4 M1256.9,636.3
	c2-7.3,5.3-15,10-23.2l0.2-0.4c1.7-0.9,4.3-1,7.7-0.4c1.4,0.3,2.5,0.6,3.2,0.8l0.3-0.5c0.1,0-0.4-0.4-1.3-1.2
	c-2.8-2.7-4.4-5.2-4.8-7.4c1.5-2.6,4.3-6.6,8.4-12.1c0.8-1.2,2.3-2.7,4.5-4.2c3.5-2.5,7.7-2.3,12.7,0.5c2.1,1.2,3.9,2.6,5.1,4.1
	c1.5,1.9,2.1,4.4,1.9,7.5c-0.1,2.3-2.3,7.3-6.7,15l-1.2,2.2c-0.1,0.2-0.3,0.6-0.5,1.1c-2,0.5-3.8,0.6-5.5,0.2
	c-2.4-0.5-4-0.9-4.8-1.3l-0.3,0.5c0.3,0.2,1,0.7,2,1.6c2.1,2.1,3.4,4.4,4,6.9c-1.4,2.5-4.2,7.4-8.2,14.7c-1.4,2.5-2.8,4.3-4.1,5.5
	c-4.7,4.3-9.8,4.8-15.4,1.6c-2.8-1.6-4.9-3.3-6.1-5.2C1257,640.8,1256.6,638.7,1256.9,636.3"/>
<path class="st1" d="M1570.8,933.8c-4.4,0.7-13.7,2-28,4.1c-0.1,0-0.2,0.1-0.2,0.2l3.4,25c0,0.2,2.3,0,6.9-0.4
	c3.7-0.5,7.1-0.4,10.2,0.2c0.8,0.2,1.5,0.6,2.2,1.4c0.7,0.7,1.5,4.3,2.3,10.8l0,0.4l0.1,0.4l0,0.1c0,0.2,0,0.3-0.1,0.3l-20.7,2.8
	c-0.3,0-0.9-0.1-1.7-0.3c-3.1-0.7-5.5-2.2-7.1-4.5c-1.7-2.5-2.8-4.8-3.2-6.9c-0.2-0.1-0.3-0.1-0.4,0c-0.1,3.8-0.7,6.7-1.9,8.7
	c-1.7,2.9-3.7,4.8-6.1,5.8l-20.3,2.7c-1.9,0.3-3.5,0.2-4.6-0.2c-1.3-0.5-2.2-2.1-2.5-4.8l-1-7.4c0-0.1,0-0.1-0.1-0.1l-13.6,1.6
	c4.2,21.2,6.8,42.6,8,64l14.3-1.6c0.1,0,0.1-0.1,0.1-0.1l-1-7.4c-0.2-1.7-0.2-3,0.2-4c0.5-1.2,2.1-2,4.9-2.4l19.5-2.6
	c2.6-0.4,4.5-0.2,5.5,0.6c1.1,0.4,2.5,1.5,4,3.5c1.5,2,2.6,4.6,3.3,7.6l0.4,0c0-0.5,0-1.3,0.1-2.7c0.2-2.6,0.8-5.1,1.9-7.5
	c1.7-2.5,3.6-4,5.7-4.2l21.4-2.9c0.1,0,0.1,0,0.1,0.1l0.1,0.9c0.8,6.3,1.1,9.9,0.7,10.8c0.1,0.7-0.5,1.5-1.9,2.5
	c-1.7,0.8-4.1,1.7-7.2,2.6c-6.2,1.5-9.2,2.3-9.2,2.6l0.9,24.8c0,0,17.3-1.8,29.6-3.5C1585.3,1013.7,1580.2,973.2,1570.8,933.8"/>
<path class="st1" d="M1506.8,946.3l1.7-0.6c1.6-0.5,3.2-1.5,4.8-3c3.8-3.8,6.1-9.6,7.1-17.3c0.5-6.4,1.7-9.9,3.6-10.5
	c1.3-0.4,2.9,0.2,4.7,1.9l0.2-0.6c-1.1-2.7-1.9-5-2.5-6.7c-2.5-7.6-3.5-14.2-3-19.8c0.3-3.3,0.9-7.6,1.8-12.8
	c0.4-3.8,2.3-6.2,5.7-7.3c2.6-0.9,5.3-0.5,7.9,1c2.6,1.9,4.2,4.1,5.1,6.6l0.1,0.4c0.6,1.9,0.8,4,0.4,6.1c-0.2,1.1-0.6,2-1.5,2.7
	c-3.4,2.4-6.6,4.1-9.4,5.1c-0.1,0-0.2,0.1-0.1,0.2l11.5,34.6c0,0.1,0.1,0.1,0.2,0.1l22.7-5.1c-6.4-24.3-14.5-48.1-24.1-71.4
	c-7.8-20.7-23.6-24-32.3-21l-0.4,0.1c-4.1,1.4-7.1,5.8-8.8,13.4c-0.6,3.8-1.7,6-3.3,6.5c-1.7,0.5-3.2-0.2-4.7-2.1l-0.2,0.3
	c0.3,0.6,0.7,1.9,1.3,3.6l0.5,1.4c3.2,9.6,4.3,18.6,3.5,27.1c-0.6,13.8-3.3,21.5-8,23.1c-1,0.3-2.3,0.5-4.1,0.5
	c-5-0.6-8.3-3.5-10-8.6c-1.2-3.6-0.5-7.4,2.1-11.3c2.5-3.1,4.9-5,7-5.7c0.2-0.1,0.3-0.2,0.3-0.4l-10.4-31.9c0-0.1-0.1-0.2-0.2-0.2
	l-29.7,14.1c8.6,17.6,16,35.5,22.3,53.8C1478,941.2,1494.1,950.5,1506.8,946.3"/>
<path class="st1" d="M1349.2,671l-16.1,17.9c-1.3,1.5-2.6,2.3-3.8,2.3c-0.9,0.3-2.9-0.9-5.9-3.6l-2.5-2.2c-0.1-0.1-0.2-0.1-0.3,0
	l-8.8,9.6c15.3,11.8,29.9,24.5,43.7,38.1c1-1.1,1.6-1.8,1.7-1.8l0.1-0.1l6.1-6.8l0.5-0.5c-2.2-2-3.5-3.5-3.7-4.6
	c-0.4-1.2,0.5-3.1,2.8-5.7l10.5-11.7c0,0,0.1-0.1,0.2,0l7.8,7c0.1,0.2-0.3,2-1,5.5c-1.5,9.2-2.7,14.4-3.8,15.5l-0.2,0.3
	c-1.2,1.4-2.9,1.4-5.1,0.2c-1.2-0.9-1.8-1.4-1.9-1.3l-8.5,9.7c13,13.3,25.2,27.4,36.6,42.3l0,0c1.2,1.5,2.3,3,3.5,4.5
	c16.3,21.9,30.3,44.7,42.2,68.3c0,0,31.2-19.4,27-17l-13.2-21.2c0,0-3.7,1.7-8.9,3.7c-1.1,0.7-2.6,0.9-4.7,0.6
	c-2.2-0.3-4.6-2.6-7.3-6.9l-3.4-5.5c-0.2-0.3-0.4-0.7-0.6-1.2c-0.5-1.9-0.3-3.1,0.8-3.8c9.9-6,16.3-9.9,19.2-11.8l-0.8,1.3
	l12.7,20.5l1-1.1l12.7-6.9l-12.7-20.5l18.5-12c1.8-1.1,3.7,0.1,5.9,3.7l4.7,7.6c1.7,2.8,2,5.1,0.7,7c0.1,0.2-1.8,1.6-10.6,7.7
	c-0.1,0,0,0.1,0.1,0.3l13.6,22c0,0.1,0.1,0.1,0.2,0l24.3-14.9c-13.6-26-29.4-51.1-47.2-75c-2.3-3.1-4.7-6.2-7.1-9.2l-6.3,3.9
	c-0.1,0-5,3.5-4.9,3.6l3.4,5.5c1.1,1.8,1.7,3.2,1.8,4.3c0.2,1.4-0.9,2.8-3.2,4.2l-8.7,5.1c-1.5,0.9-3.5,1.2-5.8,0.8
	c-2.2-0.3-5-2.3-8.6-5.9l-0.4,0.2c1.5,4.5,1.9,7.9,1.2,10.3c-0.3,2.1-1.7,4-4.4,5.7c0,0-1.6,1.5-10.8,6.7
	c-9.2,5.2-12.3-2.1-13.1-4.8c-0.5-2.5-0.7-4.7-0.5-6.5c0.6-4.7,2.4-14.9,5.4-30.6l0.5-0.6c0.1,0,0.5,0.1,1,0.3
	c2.2,0.9,5.1,1.6,8.9,2.2c8.6,0.6,15.4-1,20.3-7.3c4.9-6.3,7.1-26.9-32-59.7c-12.1-11.5-24.7-22.5-37.7-32.8l-7,7.7
	c0,0,0,0.1,0.1,0.2l3.6,3.2c1.4,1.3,2.4,2.4,2.8,3.4c0.7,1.5,0.2,3.2-1.5,5.1l-11.6,12.9c-0.2,0.2-0.5,0.5-0.8,0.7
	c-1.5,1-3.6,1.4-6.2,1.1c-2.3-0.3-4.7-1.3-7.1-2.8l-0.2,0.9c2.1,2.8,3.3,5.4,3.6,7.9C1350.1,668.3,1349.9,670,1349.2,671
	 M1404.7,667.1c2.8,2.5,4.9,5,6.3,7.5c3.2,5.7,3,10.6-0.6,14.6l-0.6,0.7c-3.3,3.7-7,5.9-10.9,6.5c-5.1,0.8-9.9-1-14.6-5.2l-0.6-0.5
	C1387.9,686,1394.9,678.2,1404.7,667.1"/>
<path class="st1" d="M1178.7,608.8l-8.3-2.2c-2.9-0.7-4.8-1.4-5.5-2.1c-1.1-1.1-1.4-2.6-1-4.3c2.3-9.2,3.9-15.8,4.9-20l23.7,5.8
	l0.2-0.1l3.9-13.1l-23.7-5.8l6-25.3c0.5-2,2.8-2.5,6.8-1.5l8.6,2.1c3.2,0.8,5,2.3,5.6,4.6c0.2,0-0.7,5.3-2.7,15.9
	c0,0.1,0,0.2,0.1,0.2l25.2,6.2c0.1,0,0.1,0,0.2-0.1l9.1-25.3c-32.1-12.6-65.4-22.2-99.4-28.8l-2.6,11.1c0,0.1,0.1,0.1,0.2,0.2
	l6.4,1.6c2.1,0.5,3.5,1.1,4.2,1.8c1.1,0.8,1.3,2.5,0.6,5.2l-3.9,15.7c-0.4,1.8-1.7,3.4-3.6,4.8c-1.8,1.3-5.2,1.9-10.3,1.9l-0.1,0.4
	c4.3,2.2,7,4.3,8.1,6.5c1.3,1.7,1.6,4.1,0.8,7.1l-4.6,18.7c-0.5,1.9-1.2,3.3-2.1,4c-0.8,0.8-3,0.8-6.8-0.1l-5.2-1.3
	c-0.1,0-0.2,0-0.3,0l-3.2,12.4c25.1,4.6,41.3,8.7,65.2,17.3L1178.7,608.8z"/>
<path class="st1" d="M577.9,896.9l-0.8,2c-0.4,1-1,1.9-1.7,2.7c-0.9,1-2.2,1.2-3.9,0.6l-0.2-0.1c-0.2-0.1-1.4-1.1-3.5-3.1
	c-1.1-0.9-1.6-1.5-1.5-1.6l13.5-32.9c3.9,0.1,6.5,0.4,8,1l0.6,0.2c0.5,0.2,0.9,0.6,1.1,1.1c0.2,0.9-0.1,2.3-1,4.5l-1.6,3.8
	c0,0.1,0,0.1,0,0.2l9.7,4c0,0,0.4,0.1,1,0.4c7-16.4,15-32.3,23.8-47.8c7-12.3,14.6-24.3,22.7-35.8c-0.7-0.5-1.2-0.8-1.2-0.8
	l-8.3-6.4c0,0-0.1,0-0.2,0l-1.3,1.7c-0.6,0.8-1.4,1.6-2.4,2.2c-1.2,0.8-2.5,0.6-3.9-0.5l-0.2-0.2c-0.2-0.1-1-1.5-2.5-4
	c-0.8-1.2-1.2-1.8-1-2l21.6-28.2c3.7,1.1,6.2,2.1,7.5,3.1l0.5,0.4c0.5,0.4,0.7,0.8,0.7,1.4c0,0.9-0.7,2.2-2.1,4.1l-2.5,3.3
	c-0.1,0.1-0.1,0.1,0,0.2l8.3,6.4c0,0,0.3,0.3,0.8,0.7c11.2-14.3,23.2-27.9,36.1-40.9c10.2-10.3,20.9-20.2,32.1-29.6l-5.8-8.7
	c0,0-0.1,0-0.2,0l-1.7,1.3c-2.6,2-4.4,3-5.3,3.1c-1.7,0.4-3.3-0.5-5-2.8l-22.3-30.1c0.6-0.3,0.9-0.4,1-0.5l42.7,20.8
	c2.7,1.4,4.1,2.1,4.1,2l13.9-10.3c-0.3-1.9-3.5-18.7-9.7-50.3l0.7-0.5l21.8,29.4c1.8,2.4,2.4,4.1,2,5.2c0.1,1-1.5,2.7-4.8,5.1
	l-1.6,1.2c-0.1,0.1-0.2,0.2-0.2,0.2l5.4,8.3c16.3-11.3,33.3-21.4,50.6-30.5c12.4-6.5,25.1-12.4,38-17.7c0-0.1-0.1-0.2-0.1-0.2
	l-3.5-9.9c0-0.1-0.1-0.1-0.2,0l-2,0.7c-1,0.3-2.1,0.5-3.2,0.5c-1.4,0-2.4-0.8-3-2.5l-0.1-0.2c-0.1-0.2-0.1-1.8,0-4.7
	c0-1.4,0-2.2,0.2-2.2l33.5-11.8c2.5,2.9,4.1,5.1,4.6,6.6l0.2,0.6c0.2,0.6,0.1,1.1-0.2,1.6c-0.5,0.7-1.8,1.5-4,2.2l-3.9,1.4
	c-0.1,0-0.1,0.1-0.1,0.1l3.4,9.6c17.4-6.1,35.1-11.2,53.1-15.2c16.4-3.7,33.1-6.5,50-8.3l-0.9-10c0-0.1,0-0.1-0.1-0.1l-5.3,0.5
	c-2.3,0.2-3.8-0.1-4.6-0.8c-0.8-0.3-1.4-2.7-1.8-7.1l-2.6-29.1c0-0.1,0-0.1,0.1-0.1l0.8-0.1l24.1,29.1c7.4,9.2,11.6,14.4,12.8,15.8
	c9.7-0.6,19.3-1,29.1-1c6.3,0,12.5,0.2,18.7,0.4l-3.8-40.7c-0.1-0.8,0.6-2.4,1.9-4.9c1.6-2.5,4.4-4.3,8.3-5.6
	c0.1-0.4,0.1-0.7-0.1-0.9l-1.2-0.2c-2-0.2-3.9-0.9-5.9-2.1c-2.4-1.7-4-3.9-4.9-6.7l-1.3-14.6c-0.2-1.7-0.1-3,0.3-4
	c0.3-1.5,2-2.3,5.1-2.6l4.9-0.4c0.2,0,0.3-0.1,0.2-0.1l-0.9-9.6c-7.2-0.3-14.3-0.5-21.5-0.5c-10.5,0-21,0.3-31.4,0.9
	c0.2,1.6,0.4,2.7,0.4,2.7l1,10.9c0,0.3,0.1,0.4,0.3,0.4l4.9-0.4c1.8-0.2,3.2-0.1,4.3,0.3c1.2,0.5,1.9,2,2.1,4.5l3,33.4l-0.9,0.1
	c-1-1.3-9.2-11.3-24.4-29.9c-4.2-5.1-10.4-13-15.9-20c-18.5,1.9-36.8,4.6-54.9,8.3l1,11c0,0.1,0.1,0.1,0.1,0.1l4.8-0.4
	c2.2-0.2,3.8,0,4.7,0.5c1,0.6,1.7,2.3,1.9,5.1l1.3,14.2c0,0.3,0,0.9-0.2,1.8c-0.9,3.2-2.6,5.6-4.9,7.2c-1.9,1.2-3.9,2.1-6,2.6l0,0.4
	c2.6,0.2,5,0.9,7.3,2.1c2.5,1.4,4.5,3.6,5.8,6.6l1.9,20.6c0.2,1.8,0.1,3.1-0.3,4.1c-0.4,1.5-2,2.3-4.8,2.6c0,0-10.5,2.4-11.9,2.2
	c-1.1-0.2-2.4-1.1-3.9-2.7c-1.4-1.6-5.9-7.4-13.4-17.2c0.1-0.2,0.1-0.4,0.1-0.5c-0.8-2.3-0.9-4.5-0.2-6.7c0.8-2.6,2.9-4.8,6.5-6.6
	l-0.2-0.5l-0.1,0c-3.9,1.4-7.8,1.8-11.5,1.2c-2.7-0.6-4.9-1.7-6.9-3.1L872,543c-0.5-1.4,0.7-2.6,3.5-3.6l5.9-2.1
	c0.1,0,0.1-0.1,0.1-0.2L877,525c-28,7.8-55.4,17.7-81.9,29.8c0.1,0.3,0.2,0.6,0.2,0.6l3.8,10.7c0,0.1,0.1,0.2,0.2,0.1l6.4-2.2
	c2.5-0.9,4-0.6,4.5,0.8l0,0.1c0.2,0.4,0.1,7.2-0.1,20.4c0,0.4-0.5,1.9-1.7,4.7c-0.6,1.6-1.7,3.3-3.4,5.1c-2.4,2.1-4.9,3.6-7.4,4.5
	l0.1,0.4c1.6-0.4,3.7-0.2,6.4,0.5c3,1.2,4.9,3,5.7,5.3c0,14.1-0.2,22.1-0.5,24.1c-0.2,2.1-1.2,3.8-2.7,5.2l-0.3-0.5c0,0-0.1,0-0.2,0
	l-5.8,4.2c-1.6,1.1-2.7,1.7-3.3,1.8c-1.7,0.5-3.4-0.4-5.1-2.7l-12.2-16.4c-1.9-2.5-2.6-4.7-2.2-6.6c0.2-2.8,1.8-5.8,4.7-9.1
	c-0.3-0.2-0.4-0.3-0.5-0.5c-2.7,1.4-5.4,2.1-8,2.1c-3-0.2-5.2-1.3-6.6-3.1l-9.5-12.8c-1-1.4-1.6-2.7-1.6-3.9c0-1.2,1.1-2.7,3.5-4.5
	l5.5-4.1c0.1-0.1,0.1-0.1,0.1-0.2l-4.4-6.8c-17.6,9.6-34.8,20.1-51.5,31.7c2.5,12.6,5.5,27.7,7.8,39.2l-1.3,0.9l-25.1-12.4
	c-2.2-1.1-6.2-3.5-10.5-6.2c-15.5,12.3-30.3,25.2-44.3,38.9l5.1,6.9c0,0.1,0.1,0,0.2,0l5.5-4.1c1.4-1,2.5-1.7,3.5-1.9
	c1.7-0.6,3.4,0.3,5.1,2.6l9.8,13.1c0.4,0.6,0.8,1.5,1,2.7c0.5,2.5-0.2,5.1-2.2,8c-1.1,1.4-1.9,2.5-2.6,3.4l0.3,0.4
	c2.3-1.1,4.7-1.8,7-2c3.7-0.2,6.3,0.7,7.7,2.6l13.4,18c1.3,1.7,1.8,3.2,1.6,4.6c-0.1,1-1.8,2.7-5,5.1c0,0-6.2,5.8-7.5,6.4
	c-1,0.4-2.6,0.4-4.8-0.2c-2.1-0.6-9-3-20.6-7.1c0-0.2-0.1-0.4-0.2-0.5c-1.9-1.5-3.2-3.3-3.8-5.5c-0.8-2.6-0.2-5.7,1.9-9.1l-0.4-0.3
	l-0.1,0.1c-2.5,3.3-5.5,5.7-9,7.3c-2.6,0.9-5,1.3-7.4,1.1l-20.8-7.3c-1.2-0.9-0.8-2.5,1-4.9l3.8-4.9c0.1-0.1,0-0.2,0-0.2l-8.6-6.9
	c-19.4,21.7-37,44.8-52.7,69.1l8.2,7.1c0.1,0.1,0.2,0,0.2,0l4.1-5.3c1.6-2.1,3-2.7,4.2-1.8l0.1,0.1c0.4,0.3,4.1,6,11,17.2
	c0.2,0.3,0.6,1.9,1.1,4.9c0.4,1.6,0.4,3.7,0,6.2c-0.9,3.1-2.2,5.7-3.8,7.8l0.3,0.3c1.1-1.2,3-2.2,5.6-3.1c3.1-0.6,5.7-0.1,7.7,1.4
	c7.7,11.8,11.9,18.6,12.7,20.5c1.6,3,1.2,6.2-1.3,9.4l-1.9,2.5c0,0.1-0.1,0.1,0,0.2l0.5,0.4c-0.1,0.1-0.2,0.3-0.4,0.4
	c-0.9,0.7-2.4,1.1-4.7,1.1c-2.2,0-9.4-0.5-21.8-1.5c-0.1-0.2-0.2-0.4-0.3-0.4c-2.2-0.9-4-2.3-5.1-4.2c-1.5-2.3-1.7-5.4-0.6-9.3
	l-0.5-0.2l0,0.1c-1.6,3.9-3.8,7-6.7,9.4c-2.2,1.6-4.5,2.6-6.9,3.1l-22-1.6c-1.4-0.6-1.5-2.2-0.3-5l2.4-5.8c0-0.1,0-0.1-0.1-0.2
	l-9.9-4.5c-13.3,26.1-24.6,53.4-33.7,81.5l10.5,3.7c0.1,0,0.2,0,0.2-0.1l2.6-6.3c1-2.5,2.2-3.4,3.6-2.8l0.1,0
	c0.4,0.2,5.5,4.7,15.2,13.6c0.3,0.2,1.1,1.7,2.4,4.4c0.8,1.5,1.3,3.5,1.6,5.9c-0.1,3.2-0.6,6.1-1.6,8.5l0.4,0.2
	c0.8-1.4,2.3-2.9,4.6-4.4c2.9-1.4,5.4-1.6,7.7-0.7c10.5,9.4,16.4,14.8,17.7,16.4c2.4,2.5,2.8,5.6,1.2,9.4l-1.2,2.9
	c0,0.1,0,0.1,0,0.2l9.7,4c0,0,2.1,1.1,5,2.6c4.1-16.3,9.1-32.3,14.9-47.9l-11-4.3C578,896.8,578,896.9,577.9,896.9 M838.5,561
	l0.9-0.3c10.6,13.7,17,22,19.2,24.9l-20.4,7.2C838.4,572.3,838.5,561.8,838.5,561 M594.9,742.1l0.6-0.7c16.4,5.7,26.3,9.1,29.6,10.4
	l-13.2,17.2C601,751.6,595.3,742.7,594.9,742.1 M550.9,883.6c-15.1-13.7-22.9-20.8-23.5-21.4l0.3-0.9c17.3,1.2,27.7,1.9,31.3,2.2
	L550.9,883.6z"/>
<path class="st1" d="M528.3,945.4c-2.1-2.1-3.5-5.1-4-9.2c-0.3-0.2-0.6-0.2-0.9-0.1l-0.4,1.2c-0.6,1.9-1.6,3.7-3.2,5.4
	c-2.1,2-4.6,3.2-7.4,3.6l-14.6-1.4c-1.7-0.2-3-0.5-3.9-1c-1.4-0.6-1.9-2.4-1.6-5.5l0.5-4.9c0-0.2,0-0.3-0.1-0.3l-9.6-0.9
	c-4,16.7-7.3,33.6-9.8,50.7c-0.1,0.6-0.1,1.2-0.2,1.8l14.5,0.8c0.3,0,0.4,0,0.5-0.2l0.5-4.9c0.2-1.8,0.5-3.1,1.1-4.2
	c0.7-1.1,2.4-1.5,4.8-1.3l33.4,3.1l-0.1,0.9c-1.5,0.8-12.8,6.9-33.9,18.6c-5.7,3.1-15.1,8-23.8,12.5c-1.8,18.5-2.7,37-2.7,55.3
	l13.1,0.8c0.1,0,0.1,0,0.1-0.1l0.4-4.8c0.2-2.2,0.6-3.7,1.3-4.5c0.8-0.9,2.6-1.2,5.3-1l14.2,1.3c0.3,0,0.9,0.2,1.7,0.6
	c3,1.5,5.1,3.6,6.2,6.2c0.9,2.1,1.4,4.3,1.5,6.4l0.4,0c0.7-2.5,1.8-4.8,3.4-6.7c1.8-2.2,4.3-3.7,7.5-4.5l20.6,1.9
	c1.8,0.2,3.1,0.5,4,1c1.4,0.7,1.9,2.4,1.7,5.2l-0.5,5.1c0,0.1,0,0.1,0.1,0.1l11.6,1.2c-0.3-17.4,0.3-35,2-52.6l-8.7-0.8
	c-0.1,0-0.1,0-0.1,0.1l-0.5,5.3c-0.2,2.3-0.8,3.8-1.7,4.4c-0.5,0.8-2.9,0.9-7.3,0.5l-29.1-2.7c-0.1,0-0.1,0-0.1-0.1l0.1-0.8l33-18.4
	c4.8-2.6,11.1-6,16.9-9.2c0.1-1,0.3-2,0.4-3c2.3-15.5,5.3-30.8,9-45.9l-41-2.4C531.9,948.1,530.5,947.2,528.3,945.4"/>
</svg>
